<?xml version="1.0" standalone="no"?>
<!DOCTYPE svg PUBLIC "-//W3C//DTD SVG 1.1//EN" "http://www.w3.org/Graphics/SVG/1.1/DTD/svg11.dtd">
<svg xmlns="http://www.w3.org/2000/svg" xmlns:xlink="http://www.w3.org/1999/xlink" width="100" height="100" version="1.1" viewBox="0 0 100 100">
 <defs/>
 <g>
  <g fill="#231f20" stroke-width=".26458">
   <path d="m16.848 20.348c0.23461-0.0496 0.46612 0.10026 0.51573 0.33487 0.04961 0.23357-0.10129 0.46405-0.33693 0.51366-0.23461 0.0496-0.46612-0.10129-0.51573-0.3359-0.04961-0.23461 0.10129-0.46405 0.33693-0.51263"/>
   <path d="m17.136 19.408c-0.39171-0.47232-0.92708-2.5394-0.99115-4.1992l-1.0831 0.90847c-0.05581 6e-3 -0.79272 0.44235-0.84956 0.44131l-0.15916 0.18914c1.4366 0.21807 1.7281 3.0117 1.7281 3.0117s-0.37 0.90951 0.30076 1.6867c0.54364 0.62942 1.3043 0.67179 1.6702 1.0935 1.0997 1.2681 9.8702 9.8909 9.8702 9.8909s-8.7281-10.654-10.486-13.022"/>
   <path d="m12.063 15.183c-0.97875-1.0335-1.1803-2.4288-0.44855-3.1151 0.7307-0.68626 2.1167-0.40514 3.0954 0.62942 0.97978 1.0335 1.1803 2.4288 0.44958 3.1151-0.7307 0.68626-2.1177 0.40514-3.0965-0.62942zm3.5502 1.1079c0.91777-0.86196 0.66456-2.6138-0.56431-3.9119-1.2299-1.2981-2.9704-1.6526-3.8881-0.78961-0.91777 0.86196-0.66559 2.6128 0.56431 3.9119 1.2289 1.2981 2.9704 1.6526 3.8881 0.78962"/>
   <path d="m15.312 21.099c-0.44545-0.42168-2.5797-1.0883-4.2375-1.2702l0.98702-1.0118c0.01034-0.0548 0.49919-0.75551 0.50333-0.81235l0.19947-0.14469c0.11679 1.4428 2.9962 1.9182 2.9962 1.9182s0.93741-0.30283 1.6671 0.41857c0.59221 0.58498 0.58084 1.3436 0.97668 1.7374 1.1917 1.1824 9.2025 10.51 9.2025 10.51s-10.048-9.4299-12.295-11.345"/>
   <path d="m11.749 18.893c-0.74001 0.67696-2.1229 0.37827-3.0882-0.6687-0.96635-1.0459-1.1493-2.4433-0.40928-3.1202 0.73897-0.678 2.1218-0.37827 3.0871 0.66766 0.96635 1.0459 1.1493 2.4433 0.41031 3.1213zm-0.06821-3.4344c-1.2123-1.3146-2.9487-1.6898-3.8768-0.83923-0.92914 0.8506-0.69866 2.6055 0.5147 3.9191 1.2123 1.3136 2.9487 1.6888 3.8778 0.8382 0.92811-0.8506 0.69763-2.6045-0.51573-3.9181"/>
  </g>
  <path d="m16.274 20.879c-0.06718 0.22944 0.06718 0.47025 0.29869 0.53536 0.23048 0.0672 0.47232-0.0672 0.53847-0.29765 0.06615-0.22944-0.06821-0.47026-0.29972-0.5364-0.23048-0.0651-0.47232 0.0682-0.53744 0.29869" fill="#fff" stroke-width=".26458"/>
  <g fill="#231f20" stroke-width=".26458">
   <g>
    <path d="m6.1166 13.686c-0.16123 0.0589-0.32556 0.13642-0.49299 0.23668-0.15916 0.0961-0.21084 0.30282-0.11472 0.46198 0.09612 0.15813 0.30386 0.20981 0.46302 0.11473 1.2599-0.75655 2.1735 0.19223 2.2118 0.23254 0.12712 0.13642 0.34106 0.14263 0.47749 0.0155 0.13643-0.12609 0.14263-0.339 0.0155-0.47439-0.39894-0.42478-1.3901-1.0118-2.56-0.58704"/>
    <path d="m7.579 14.873s0.28732-0.44545 0.0083-0.53537c-0.28009-0.0889 0.28835-0.45165 0.28835-0.45165l0.43408 0.0817s0.20981 0.1788 0.65422 0.19947c0.44338 0.0207 0.15606 0.21601 0.08785 0.24081-0.06821 0.0248-1.4593 0.62839-1.4728 0.46509"/>
    <path d="m25.765 11.065c-0.04237-0.0372-0.04651-0.10129-0.0093-0.14263 0.03721-0.0424 0.10025-0.0465 0.14263-9e-3l2.0629 1.8004c-0.04031-0.1447-0.12299-0.28009-0.24495-0.38758l-1.7115-1.4945 1e-3 -1e-3c-0.05168-0.0548-0.05478-0.13953-0.0041-0.19741 0.05064-0.0579 0.13643-0.0661 0.1974-0.0227l1e-3 -1e-3 2.3306 2.035c0.6749 0.58911 0.44339 1.2165-0.67902 2.4918l-15.343 17.434-0.0021-2e-3c-0.03307 0.0238-0.07958 0.0238-0.11162-4e-3 -0.03824-0.0331-0.04134-0.0899-0.0083-0.12712l7.5851-10.086 0.05995-0.0682c0.15813-0.24185 0.13436-0.56018-0.05891-0.77618l-1.9213-1.6774c-0.04134-0.0362-0.04547-0.10025-0.0093-0.14159 0.03721-0.0424 0.10129-0.0465 0.14366-0.0103l2.3399 2.0443 0.13229-0.1509-2.3399-2.0433c-0.04237-0.0362-0.04651-0.10025-0.0093-0.14263 0.03617-0.0413 0.10025-0.0465 0.14263-9e-3l2.3409 2.0433 0.13229-0.14987-2.3409-2.0443c-0.04237-0.0362-0.04651-0.10025-0.0093-0.14159 0.03721-0.0424 0.10129-0.0465 0.14263-9e-3l2.3409 2.0433 0.13229-0.15089-2.3409-2.0433c-0.04134-0.0362-0.04547-0.10025-0.0093-0.14262 0.03721-0.0413 0.10129-0.0455 0.14366-9e-3l2.3399 2.0443 0.13332-0.15089-2.3409-2.0433c-0.04237-0.0372-0.04651-0.10128-0.01033-0.14263 0.03721-0.0424 0.10129-0.0465 0.14366-9e-3l2.3409 2.0433 0.13229-0.14986-2.3409-2.0443c-0.04238-0.0362-0.04651-0.10026-0.0093-0.14263 0.03721-0.0413 0.10129-0.0455 0.14263-9e-3l2.3409 2.0443 0.13229-0.1509-2.3409-2.0433c-0.04134-0.0372-0.04548-0.10025-0.0093-0.14263 0.03721-0.0424 0.10129-0.0455 0.14366-9e-3l2.3399 2.0433 0.13333-0.14987-2.3409-2.0443c-0.04237-0.0362-0.04651-0.10025-0.0093-0.14159 0.03617-0.0424 0.10025-0.0465 0.14263-9e-3l2.3409 2.0433 0.13229-0.14986-2.3409-2.0443c-0.04238-0.0362-0.04651-0.10025-0.0093-0.14262 0.03721-0.0413 0.10129-0.0455 0.14366-9e-3l2.3399 2.0433 0.13229-0.14986-2.3409-2.0433c-0.04134-0.0372-0.04547-0.10128-0.0093-0.14263 0.03721-0.0424 0.10128-0.0455 0.14366-9e-3l2.3409 2.0433 0.13126-0.14986-2.3399-2.0443c-0.04237-0.0362-0.04651-0.10026-0.0093-0.14263 0.03617-0.0413 0.10025-0.0455 0.14263-9e-3l2.3409 2.0443 0.13229-0.1509-2.3409-2.0433c-0.04238-0.0372-0.04651-0.10026-0.0093-0.14263 0.03721-0.0424 0.10025-0.0455 0.14263-9e-3l2.3409 2.0433 0.13229-0.14986-2.3409-2.0443c-0.04134-0.0362-0.04547-0.10026-0.0093-0.1416 0.03721-0.0424 0.10128-0.0465 0.14263-0.0103l2.3409 2.0443 0.13229-0.1509-2.3399-2.0433c-0.04237-0.0372-0.04651-0.10026-0.0093-0.14263 0.03617-0.0413 0.10025-0.0455 0.14263-9e-3l2.3409 2.0443 0.13229-0.1509-2.3409-2.0433c-0.04134-0.0372-0.04651-0.10129-0.0093-0.14263 0.03721-0.0424 0.10129-0.0465 0.14263-9e-3l2.3409 2.0433 0.13229-0.14986-2.3409-2.0443c-0.04134-0.0362-0.04548-0.10025-0.0093-0.14263 0.03721-0.0413 0.10128-0.0455 0.14263-9e-3l2.3409 2.0443 0.13229-0.15089-2.3399-2.0433c-0.04237-0.0372-0.0465-0.10025-0.0093-0.14263 0.03617-0.0413 0.10025-0.0465 0.14263-9e-3l2.3409 2.0433 0.13229-0.14986-2.3409-2.0433c-0.04237-0.0372-0.04651-0.10128-0.0093-0.14263 0.03721-0.0424 0.10129-0.0465 0.14263-9e-3l2.3409 2.0433 0.13229-0.1509-2.3399-2.0433c-0.04237-0.0372-0.04754-0.10026-0.01033-0.14263 0.03721-0.0413 0.10129-0.0455 0.14263-9e-3l2.3409 2.0433 0.13333-0.14986-2.3409-2.0433c-0.04237-0.0372-0.04651-0.10129-0.01033-0.14263 0.03721-0.0424 0.10128-0.0465 0.14366-9e-3l2.3409 2.0433 0.13229-0.14986-2.3409-2.0443c-0.04237-0.0362-0.04651-0.10025-0.0093-0.14262 0.03721-0.0413 0.10025-0.0455 0.14263-9e-3l2.3409 2.0443 0.13229-0.15089-2.3409-2.0433c-0.04238-0.0372-0.04547-0.10025-0.0093-0.14263 0.03721-0.0413 0.10129-0.0465 0.14366-9e-3l2.3399 2.0433 0.13229-0.14986-2.3399-2.0443c-0.04237-0.0362-0.04651-0.10025-0.0093-0.14159 0.03617-0.0424 0.10025-0.0465 0.14263-9e-3l2.3399 2.0433 0.13332-0.1509-2.3409-2.0433c-0.04238-0.0362-0.04651-0.10025-0.0093-0.14263 0.03721-0.0424 0.10129-0.0455 0.14263-9e-3l2.3409 2.0433 0.13229-0.14986-2.3409-2.0433c-0.04134-0.0372-0.04651-0.10129-0.0093-0.14263 0.03721-0.0424 0.10129-0.0465 0.14263-9e-3l2.3409 2.0433 0.13229-0.15089-2.3399-2.0433c-0.04237-0.0362-0.04651-0.10025-0.01033-0.14263 0.03721-0.0413 0.10129-0.0455 0.14366-9e-3l2.3409 2.0443 0.13229-0.15089-2.3409-2.0433c-0.04237-0.0372-0.04651-0.10129-0.0093-0.14263 0.03617-0.0413 0.10129-0.0465 0.14263-9e-3l2.3409 2.0433 0.13229-0.14987-2.3409-2.0443c-0.04134-0.0362-0.04547-0.10025-0.0093-0.14159 0.03721-0.0424 0.10129-0.0465 0.14263-0.0103l2.3409 2.0443 0.08371-0.0961c0.01654-0.0186 0.03204-0.0372 0.04548-0.0568l-2.3368-2.0412c-0.04237-0.0372-0.04651-0.10025-0.0093-0.14263 0.03617-0.0424 0.10025-0.0455 0.14263-9e-3l2.3037 2.0112c0.02791-0.0713 0.04444-0.14573 0.05168-0.22015l-2.2231-1.941"/>
   </g>
   <g fill-rule="evenodd">
    <path d="m56.516 62.836c0.77618 0.25218 1.5348 0.60358 2.2624 1.0707 1.4966 0.96015 2.8587 1.8418 4.4814 2.4329 1.54 0.56018 3.2701 0.62426 4.8111 0.0413 2.0185-0.76481 2.5508-2.7285 2.3988-2.4443-0.47025 0.87126-1.3684 1.7032-2.3327 2.0743-1.4325 0.55087-3.1471 0.38344-4.6788-0.13953-1.5937-0.5457-2.8804-1.4717-4.3966-2.4081-0.97565-0.60358-1.9627-1.0087-2.928-1.2661 0.14676 0.21291 0.26561 0.44029 0.3824 0.63872z"/>
    <path d="m78.477 62.057c-0.21704-1.0728 1.1338-2.1632 2.4081-1.8293 1.4128 0.37104 2.5425 2.1776 1.54 4.1155-0.49402 0.95498-1.3291 1.6506-2.3461 2.0371-1.5441 0.58292-3.2732 0.51884-4.8131-0.0413-1.6216-0.59117-2.9848-1.4728-4.4804-2.4329-3.482-2.2324-7.6233-1.818-11.372-0.61185 1.4976-0.88057 6.7066-2.8898 11.656 0.16846 1.5152 0.93638 2.8019 1.8624 4.3956 2.4081 1.5317 0.52297 2.9931 0.58498 4.4235 0.0351 0.96428-0.37207 1.695-0.90227 2.1642-1.7735 0.94775-1.7549-0.03-3.2536-1.2547-3.5894-1.0397-0.28525-2.2273 0.58602-2.3213 1.5141z"/>
    <path d="m72.202 64.178c0.67076 0.39067 1.5182 0.49196 2.2996 0.41651 0.41341-0.0403 0.82166-0.14883 1.172-0.35864 0.3483-0.2098 0.64183-0.52296 0.78135-0.9002 0.0703-0.1881 0.10336-0.39067 0.0899-0.59118-0.0134-0.19947-0.0734-0.39687-0.17673-0.5674-0.10542-0.17054-0.25529-0.31627-0.43202-0.40928-0.17673-0.0941-0.38447-0.13746-0.58498-0.11576-0.26045 0.0289-0.5147 0.17157-0.66456 0.38964-0.15089 0.21808-0.19637 0.51263-0.10542 0.76378 0.062 0.17363 0.18811 0.32659 0.3514 0.41134 0.1633 0.0858 0.36794 0.10336 0.54157 0.0341 0.0858-0.0341 0.16537-0.0899 0.22635-0.1602 0.061-0.0713 0.10542-0.15813 0.12505-0.25114 0.0196-0.0982 0.0114-0.20361-0.0258-0.29766 0.0837 0.0951 0.0672 0.26562 0.0599 0.30489-0.0176 0.0992-0.0599 0.1943-0.12402 0.27285-0.0641 0.0785-0.1478 0.14056-0.24081 0.1819-0.1881 0.0806-0.40928 0.0713-0.59532-0.0186-0.185-0.0899-0.32969-0.25424-0.40514-0.44441-0.10955-0.27905-0.0724-0.60772 0.092-0.863 0.16433-0.25425 0.44545-0.42581 0.74725-0.46922 0.23151-0.031 0.46922 0.0103 0.67799 0.11162 0.20877 0.10232 0.38861 0.26252 0.51573 0.45785 0.12713 0.19534 0.20464 0.42168 0.22738 0.65216 0.0227 0.23048-7e-3 0.46612-0.0827 0.68523-0.14882 0.43822-0.46612 0.80512-0.85472 1.0532-0.38654 0.24701-0.83303 0.38447-1.2816 0.43925-0.81132 0.10541-1.6361-0.03-2.3699-0.40205-0.14676-0.0744-0.0382-0.16123 0.0362-0.32556z"/>
    <path d="m63.556 65.904c0.59841 0.25425 1.3105 0.25115 1.9503 0.10748 0.34003-0.0765 0.66869-0.20773 0.93638-0.41857 0.26665-0.20981 0.47852-0.50023 0.555-0.82786 0.0382-0.1633 0.0444-0.33486 0.0124-0.49919-0.032-0.16434-0.10232-0.32246-0.20671-0.45269-0.10335-0.13126-0.24391-0.23668-0.401-0.29456-0.15607-0.061-0.3328-0.0744-0.4961-0.0351-0.21394 0.0496-0.41031 0.1943-0.5116 0.3917-0.10231 0.19534-0.10955 0.44545-8e-3 0.64389 0.0713 0.13746 0.1912 0.25115 0.3359 0.30489 0.14366 0.0548 0.31522 0.0475 0.45165-0.0279 0.0672-0.0372 0.12816-0.092 0.1726-0.15606 0.0424-0.0651 0.0703-0.14159 0.0765-0.22014 6e-3 -0.0847-0.0124-0.17156-0.0527-0.24598 0.0796 0.0713 0.0837 0.21394 0.0816 0.24805-4e-3 0.0837-0.0289 0.16536-0.0744 0.23874-0.0455 0.0713-0.10749 0.13229-0.18087 0.17467-0.14676 0.0868-0.3328 0.10232-0.49506 0.0475-0.1633-0.0568-0.30076-0.17673-0.38241-0.32763-0.11989-0.22014-0.12402-0.49712-0.0145-0.72553 0.10852-0.22738 0.32453-0.39998 0.57051-0.46613 0.18913-0.0496 0.39067-0.0413 0.57567 0.0217 0.18397 0.0641 0.3483 0.1788 0.47543 0.32763 0.12505 0.1478 0.21187 0.32763 0.25528 0.51676 0.0434 0.18914 0.0434 0.38654 4e-3 0.57671-0.0785 0.37827-0.30386 0.71727-0.60048 0.96325-0.29456 0.24495-0.65009 0.40411-1.017 0.49713-0.66249 0.17053-1.3601 0.14469-2.0092-0.0899-0.12919-0.0465-0.0475-0.12919-3e-3 -0.27285z"/>
    <path d="m75.266 66.339c0.5457 0.17364 1.0191 0.58705 1.3622 1.0511 0.18087 0.24701 0.32349 0.524 0.37931 0.81959 0.0558 0.29249 0.0279 0.60772-0.11059 0.87023-0.0692 0.13023-0.16433 0.24908-0.28216 0.34003-0.11472 0.0909-0.25424 0.15503-0.39894 0.1819-0.14676 0.0279-0.30075 0.0176-0.43925-0.0331-0.13849-0.0517-0.26458-0.14366-0.3514-0.26355-0.11369-0.15606-0.15916-0.3669-0.11369-0.55604 0.0465-0.18913 0.18707-0.35967 0.37001-0.43408 0.12506-0.0506 0.27182-0.0579 0.39997-9e-3 0.12816 0.0465 0.23772 0.14986 0.28423 0.27905 0.0238 0.063 0.0331 0.13436 0.0238 0.2036-9e-3 0.0682-0.0341 0.1354-0.0765 0.19017-0.0444 0.0599-0.10645 0.10646-0.17673 0.13333 0.094-1e-3 0.17984-0.0941 0.1974-0.11782 0.0465-0.0579 0.0765-0.12816 0.0889-0.20154 0.0124-0.0744 5e-3 -0.14986-0.0186-0.22118-0.0476-0.14262-0.16227-0.25941-0.30283-0.31626-0.14056-0.0568-0.30179-0.0558-0.44441-3e-3 -0.20774 0.0775-0.37104 0.26045-0.42995 0.47542-0.0589 0.21498-0.0165 0.45372 0.10955 0.63976 0.0961 0.14159 0.23565 0.25218 0.39584 0.31625 0.15917 0.0641 0.3359 0.0827 0.5054 0.0558 0.17156-0.0269 0.33279-0.0951 0.47232-0.19638 0.1385-0.10128 0.25115-0.23357 0.3359-0.38137 0.1695-0.29765 0.21497-0.65319 0.1602-0.98805-0.0538-0.3328-0.19844-0.64492-0.38965-0.91674-0.34313-0.4961-0.82165-0.88057-1.3901-1.0986-0.11266-0.0434-0.10646 0.0589-0.1602 0.18086z"/>
    <path d="m56.812 62.938c0.67799 0.21704 1.2671 0.72864 1.6929 1.3064 0.2253 0.30696 0.40204 0.65112 0.47232 1.018 0.0692 0.36483 0.0351 0.75757-0.13746 1.0821-0.0858 0.16433-0.20464 0.31006-0.35037 0.42375-0.14572 0.11265-0.31729 0.1943-0.49919 0.22737-0.17984 0.0331-0.37207 0.0207-0.54364-0.0424-0.1726-0.0641-0.32866-0.17777-0.43615-0.32763-0.14159-0.1943-0.19947-0.45578-0.14159-0.6904 0.0568-0.23667 0.23048-0.44855 0.45889-0.5395 0.15606-0.0641 0.33899-0.0723 0.49816-0.0134 0.15813 0.0589 0.29559 0.18604 0.3545 0.34727 0.0289 0.0806 0.0393 0.16743 0.0279 0.25321-0.0103 0.0848-0.0424 0.16847-0.0951 0.23668-0.0558 0.0754-0.13126 0.13436-0.22014 0.16536 0.11679-1e-3 0.22427-0.11679 0.24701-0.14572 0.0568-0.0724 0.0951-0.15917 0.10956-0.25115 0.0145-0.0909 6e-3 -0.18604-0.0227-0.27492-0.0589-0.17673-0.20154-0.32246-0.37724-0.39274-0.17467-0.0703-0.37517-0.0693-0.55294-4e-3 -0.25735 0.0971-0.46095 0.32349-0.53433 0.59118-0.0734 0.26768-0.0207 0.56327 0.13746 0.79478 0.11885 0.17674 0.29145 0.31316 0.49092 0.39378 0.19844 0.0796 0.41755 0.10232 0.62942 0.0703 0.21084-0.0331 0.41341-0.11886 0.58498-0.24495 0.17156-0.12609 0.31522-0.29042 0.42064-0.47542 0.20775-0.37001 0.26562-0.81029 0.19844-1.2268-0.0672-0.41341-0.24804-0.80202-0.48369-1.141-0.42685-0.61598-1.0232-1.0935-1.7291-1.3653-0.13953-0.0537-0.13333 0.0734-0.19947 0.22531z"/>
    <path d="m82.019 70.462c-0.27181 0.0744-0.61908 0.0651-0.79168-0.13229 0.32866 0.0641 0.64079-0.0848 0.89504-0.42272 0.20877-0.27698 0.24598 0.0486 0.1602 0.17467-0.11369 0.16847-0.39171 0.29662-0.26356 0.38034zm-1.2464-0.37724c-6e-3 -0.25218-0.40101-0.66869-0.17777-0.74724 0.29869 0.50023 0.48886 0.73897 1.0222 0.77515-0.10232 0.0848-0.24391 0.15089-0.3855 0.13849-0.26045-0.0227-0.41341-0.19224-0.45889-0.1664zm-1.4376-1.5493c0.36794-1.1038 1.3612-0.98392 1.5482-0.99218-0.45682 0.12298-0.79892 0.27078-1.048 1.0563-0.062 0.1943-0.13333 0.16536-0.50023-0.0641zm0.19224 1.8459c-0.20671-0.19327-0.61598-0.7369-0.21497-1.7746 0.26665 0.13022 0.39687 0.35346 0.27181 0.67489-0.21394 0.5457-0.15399 0.82786-0.0568 1.0997zm-0.34623-1.6474c0.0951-0.34003 0.0134-0.0703 0.16019-0.39274 0.0227-0.0548 0.0362-0.0982 0.0465-0.15296 9e-3 -0.0527 0.0104-0.0899 6e-3 -0.13746-0.0176-0.1602-0.0827-0.25425-0.15399-0.35554-0.0465-0.061-0.0744-0.16846-0.0868-0.26665-6e-3 -0.0568-8e-3 -0.10852 0-0.17363 3e-3 -0.0176 0.0124-0.0661 0.0196-0.0816 7e-3 -0.0217 0.0372-0.0889 0.0362-0.0992-7e-3 -0.0196-0.0682 0.0517-0.0765 0.0682-0.0227 0.0362-0.0372 0.0682-0.0507 0.11058-0.0279 0.0858-0.0362 0.1571-0.0393 0.24082-1e-3 0.0527-0.0331 0.26561-0.03 0.41134 5e-3 0.20464 0.0444 0.34933 0.032 0.3638-0.0755 0.0775-0.31627 2e-3 -0.49507 0.0496-0.062 0.0186-0.10852 0.0475-0.16846 0.10335-0.062 0.0672-0.10956 0.13643-0.15503 0.23152 0 4e-3 -0.0103 0.0207-0.0114 0.0269-1e-3 3e-3 -7e-3 0.0134-7e-3 0.0196 0 6e-3 -2e-3 0.0217 5e-3 0.0207 3e-3 -2e-3 9e-3 -0.0103 0.0124-0.0124l7e-3 -4e-3c7e-3 -4e-3 0.0145-0.0104 0.0217-0.0186 0.0527-0.061 0.092-0.10336 0.1509-0.1416 0.0413-0.0269 0.0734-0.0351 0.11575-0.0372 0.0827 2e-3 0.14366 0.0424 0.20981 0.0899 0.0723 0.0507 0.13952 0.10646 0.22324 0.12609 5e-3 1e-3 9e-3 1e-3 0.0134 2e-3 -0.17157 0.24908-0.41238 0.17157-0.65629 0.37104-0.1726 0.14676-0.25528 0.37414-0.23978 0.60358l5e-3 0.062 2e-3 -2e-3 0.0351-0.0786c0.0196-0.094 0.0393-0.1943 0.092-0.28318 0.22428-0.38344 0.71107-0.0186 0.97565-0.66353zm1.8324 2.4495c-0.58291-0.18603-0.72967-0.68006-0.75964-0.8723-0.21808-0.0475-0.55191-0.27388-0.66146-0.58704-0.17673 0.58394 0.23461 0.72864-0.0765 1.3198 0.44752-0.20464 1.1224 0.92294 1.4976 0.13952zm-0.53536-1.8841c-2e-3 3e-3 -8e-3 -1e-3 -0.0103-7e-3 -0.14469-0.26149 0.11265-0.58188 0.49816-0.80409 0.3545-0.2036 0.89194-0.062 1.1751-0.23875 0.0176 0.30283 0.36691 0.32867 0.43512 0.66766 0.0393 0.19017 0.0207 0.39068-0.10955 0.56224-0.97462-1.1183-1.8407-0.46818-1.9885-0.17983zm1.3229 0.49713c-0.0496 0.0858-0.35863 0.22634-0.56121 0.0496-0.2005-0.17364-0.21393-0.36174-0.0971-0.48679 0.36484-0.1602 0.34003 0.52606 0.65836 0.43718zm0.55811-0.11162c0.0217-0.21291-0.40515-0.76171-1.1586-0.7059-0.14573 0.0114-0.85576 0.20257-0.0961 0.87746-0.40514-0.47852 0.0661-0.63045 0.23668-0.60668 0.29146 0.0413 0.45785 0.14986 0.5085 0.31729 0.0351 0.11886 0.0744 0.37207-0.22324 0.48163 0.31522-7e-3 0.54466-0.47956 0.73277-0.3638zm-2.0784 0.54777c-0.24701-0.0682-0.49713-0.29456-0.62735-0.56534-0.13539-0.28526 0.29249-0.70177 0.13022-0.87334 0.25735 0.0289 0.29353-0.47232 0.88057-0.77721 0.63769-0.33176 1.0222 0.22738 1.0108 0.22634-1.3436-0.13745-1.6692 1.1586-1.3942 1.9896zm1.3188-3.1326c-1.0656 0.96738-1.1596 0.31006-1.7002 1.5028 0.091-0.13849 0.28732-0.39687 0.44545-0.52296 0.47025-0.37414 1.1255-0.51987 1.4707 0.0444 0.0641 0.10232 0.38654-0.092 0.1726-0.42478-0.22531-0.3514-0.33486-0.36897-0.38861-0.59945zm0.94361 2.6665c0.35244-0.64389 0.24495-1.2072-0.34003-1.6133 0.16433-0.0909 0.29766-0.1447 0.72864 0.40411 0.1416 0.1788 0.22014 0.13539 0.30696 0.17983-0.0703 0.0992-0.13746 0.39687-0.21497 0.59428-0.11059 0.29352-0.24598 0.48369-0.4806 0.43512zm-2.1311-0.30696c-0.0651 0.50023-0.13746 1.1576 0.50643 1.4821 0.76171 0.38343 0.89917-0.13539 1.4004 0.0279 0.0104 4e-3 -0.0165-0.14469 0.0455-0.22634 0.1695-0.23151 0.19741-0.51883 0.15917-0.80409-1e-3 -2e-3 -0.21291 0.58395-0.72244 0.69453-0.7245 0.15814-1.3488-0.83095-1.3891-1.1741z"/>
   </g>
   <path d="m79.052 68.322c-0.63976-0.59014-1.6299-1.5668-2.4825-1.8014-0.0599-0.0227-0.21084-0.0403-0.28319-0.0403-0.10232 0-0.1695 0.032-0.14469 0.14056 0.0186 0.0899 0.0548 0.11059 0.14469 0.11059 0.0806 0 0.14573 0.0104 0.22428 0.0279 0.84336 0.2005 1.7498 1.1048 2.4557 1.6061 0.20981 0.14986 0.17363 0.0372 0.0858-0.0434z"/>
   <g fill-rule="evenodd">
    <path d="m59.82 65.256c-0.10542 0.40102-0.58807 0.93431-0.42891 1.5348 0.28629 1.079 1.3105 1.756 1.1782 2.5993 0.96118-1.1586 1.48-2.5683 0.80512-3.4634-0.26768-0.3545-0.72037-0.62839-1.4066-0.77515 0.0713 0.11472 0.12506 0.21704 0.15813 0.29559 0.0382 0.0941 0.0765 0.1881 0.11162 0.28215v-1e-3c0.185 0.23565 0.66146 0.44339 0.92397 0.41548-0.25941 0.0631-0.53433 0.0382-0.81958-0.11472 0.0806 0.24701 0.14572 0.49506 0.2005 0.74414 0.11576 0.20774 0.46509 0.43202 0.67489 0.44132-0.2098 0.0186-0.42167-0.0341-0.62528-0.18707 0.0662 0.3638 0.10749 0.73071 0.12402 1.0976-0.0455-0.37621-0.11265-0.74828-0.2067-1.1162-0.12506 0.22944-0.29972 0.36793-0.50126 0.43821 0.1881-0.0941 0.41547-0.44131 0.43718-0.67799-0.0589-0.20154-0.12402-0.40205-0.19637-0.60048-0.11059 0.29765-0.29973 0.49609-0.5333 0.62011 0.21601-0.15296 0.43201-0.62528 0.41341-0.9219-0.0506-0.12092-0.10542-0.24185-0.16123-0.3607-0.0331-0.0672-0.0817-0.154-0.1478-0.25012z"/>
    <path d="m73.665 66.04c-0.13643 0.29662-0.58188 0.64286-0.54261 1.1286 0.0734 0.87334 0.77205 1.5358 0.55501 2.1694 0.90123-0.76481 1.4966-1.7839 1.0966-2.5683-0.15813-0.31006-0.47129-0.58187-0.98185-0.78961 0.0403 0.0992 0.0682 0.185 0.0816 0.25011 0.0186 0.0775 0.0341 0.15503 0.0486 0.23358v-1e-3c0.10956 0.2067 0.45062 0.43305 0.65733 0.44545-0.20878 0.0145-0.41858-0.0424-0.61702-0.19844 0.0279 0.2005 0.0444 0.40101 0.0517 0.60255 0.061 0.1757 0.30075 0.39687 0.46302 0.43305-0.16537-0.0155-0.3235-0.0858-0.45786-0.23048 0 0.29042-0.0186 0.57878-0.0548 0.86506 0.0155-0.29662 0.0145-0.59428-7e-3 -0.8909-0.12712 0.16123-0.28112 0.24391-0.44855 0.27079 0.15916-0.0476 0.38137-0.28526 0.43098-0.46406-0.0176-0.16433-0.0403-0.32866-0.0692-0.49196-0.12816 0.21498-0.29869 0.34313-0.49713 0.40721 0.18811-0.0889 0.41962-0.42374 0.44546-0.65629-0.0227-0.10128-0.0476-0.2005-0.0765-0.29972-0.0145-0.0558-0.0403-0.13126-0.0775-0.21498z"/>
    <path d="m76.198 65.313c0.24081-0.34003 0.339-1.0511 0.90227-1.3167 1.0129-0.4775 2.1921-0.13437 2.7554-0.77825-0.27078 1.479-1.017 2.7833-2.1394 2.8463-0.44546 0.0248-0.94672-0.14469-1.5007-0.5736 0.13229-0.0186 0.24701-0.0434 0.32763-0.0692 0.0971-0.03 0.19327-0.0631 0.28836-0.0971v1e-3c0.29868-0.0104 0.76584 0.21704 0.91363 0.43615-0.11988-0.23771-0.31522-0.43305-0.61598-0.54984 0.24081-0.0982 0.47439-0.20774 0.70073-0.32763 0.23358-0.0465 0.63046 0.0755 0.77515 0.22944-0.12299-0.17053-0.29972-0.29868-0.5488-0.35449 0.32246-0.18397 0.62942-0.38965 0.92397-0.61289-0.31936 0.20774-0.65009 0.39585-0.99115 0.56121 0.0971-0.24185 0.0889-0.46406 0.0134-0.66456 0.0486 0.20464-0.0713 0.60151-0.23978 0.76998-0.19224 0.0858-0.38757 0.16536-0.58704 0.23668 0.15709-0.27595 0.18707-0.54674 0.13229-0.80512 0.0217 0.26251-0.20154 0.73174-0.44132 0.9095h1e-3c-0.12609 0.0393-0.25425 0.0754-0.38241 0.10852-0.0703 0.0186-0.16949 0.0372-0.28732 0.0506z"/>
    <path d="m67.333 61.427c0.16433-0.44958 0.0589-1.2702 0.60461-1.7343 0.98082-0.83612 2.3978-0.80615 2.8288-1.6929 0.14573 1.727-0.28939 3.4013-1.5193 3.8086-0.48679 0.1602-1.0955 0.12299-1.8438-0.18707 0.14263-0.062 0.26251-0.12402 0.3452-0.17673 0.0992-0.063 0.19637-0.12712 0.29145-0.19327 0.32763-0.10128 0.91881 0.0124 1.1482 0.21188-0.20464-0.22841-0.48162-0.38758-0.85266-0.42788 0.23874-0.18191 0.46509-0.37311 0.6811-0.57465v1e-3c0.24598-0.12196 0.72553-0.10542 0.93224 0.0227-0.18914-0.154-0.42375-0.24288-0.7183-0.23048 0.30282-0.30179 0.58291-0.62218 0.84129-0.95912-0.29042 0.3266-0.60152 0.63459-0.93121 0.92191 0.0341-0.29869-0.0413-0.54363-0.18707-0.74414 0.11679 0.21394 0.10335 0.6904-0.032 0.92915-0.1881 0.15399-0.38241 0.30075-0.58291 0.44028 0.0909-0.3545 0.0444-0.66559-0.0951-0.93431 0.10438 0.28422-2e-3 0.87333-0.21601 1.1431-0.12816 0.0806-0.25735 0.15917-0.39067 0.23461-0.0734 0.0424-0.17777 0.0941-0.30386 0.1416z"/>
    <path d="m69.804 62.085c0.25528-0.25218 0.44442-0.83923 0.96221-0.97979 0.92915-0.25424 1.8769 0.21395 2.4495-0.24701-0.45165 1.2113-1.2805 2.2035-2.2407 2.0898-0.37931-0.0455-0.77928-0.26459-1.1844-0.71004 0.11576 4e-3 0.21601 0 0.28836-0.0103 0.0868-0.0104 0.1726-0.0238 0.25838-0.0382 0.25425 0.0362 0.61599 0.29869 0.70694 0.50746-0.0631-0.22014-0.20051-0.41341-0.43822-0.55914 0.21911-0.0465 0.43408-0.10439 0.64285-0.17363v1e-3c0.20464-3e-3 0.52297 0.15916 0.62115 0.31109-0.0765-0.1633-0.20774-0.29766-0.41031-0.38241 0.30076-0.10852 0.59222-0.23564 0.8754-0.38137-0.30076 0.12816-0.60978 0.23771-0.92397 0.32763 0.11782-0.1912 0.14469-0.37931 0.11058-0.56121 0.0114 0.18087-0.14986 0.49817-0.31832 0.61599-0.1757 0.0444-0.35347 0.0827-0.5333 0.11369 0.1757-0.21085 0.24081-0.43615 0.23461-0.66146-0.0207 0.22531-0.28215 0.58807-0.51263 0.7028h1e-3c-0.11266 0.0145-0.22531 0.0269-0.339 0.0351-0.0631 5e-3 -0.14883 7e-3 -0.25011 0z"/>
    <path d="m53.433 60.531c0.23874-0.42064 0.27078-1.2547 0.89297-1.6268 1.1152-0.66766 2.5197-0.40411 3.0985-1.2134-0.14366 1.7415-0.85989 3.3362-2.1508 3.5367-0.50953 0.0786-1.111-0.0589-1.8025-0.49299 0.15193-0.0362 0.28112-0.0786 0.37207-0.11782 0.10955-0.0455 0.21704-0.0941 0.32349-0.14366h-1e-3c0.3452-0.0455 0.91261 0.16433 1.108 0.40204-0.16537-0.26355-0.41445-0.46509-0.77619-0.56741 0.26666-0.14159 0.524-0.29455 0.77412-0.45889h-2e-3c0.26665-0.0796 0.74001 0.0155 0.92398 0.17881-0.16124-0.18501-0.38138-0.31213-0.6749-0.34934 0.35037-0.25011 0.68316-0.52193 0.99736-0.81442-0.3452 0.27595-0.70487 0.53123-1.0821 0.76275 0.0847-0.29146 0.0506-0.54777-0.0599-0.77102 0.0806 0.23151-0.0134 0.70487-0.1881 0.91778-0.21291 0.12195-0.43099 0.23667-0.65319 0.3421 0.14986-0.33797 0.15502-0.65423 0.061-0.94672 0.0558 0.30179-0.14883 0.8692-0.40617 1.1017-0.14056 0.06-0.28422 0.11679-0.42788 0.1695-0.0806 0.03-0.19327 0.0631-0.3266 0.091z"/>
    <path d="m56.084 61.187c0.27802-0.16536 0.57361-0.63975 1.0594-0.64905 0.87127-0.0207 1.5999 0.59738 2.2045 0.31729-0.66352 0.96532-1.6092 1.6547-2.4267 1.3457-0.3235-0.12299-0.62632-0.40205-0.88264-0.88264 0.10026 0.03 0.18914 0.0475 0.25529 0.0548 0.0785 9e-3 0.15709 0.0165 0.2346 0.0227 0.21601 0.0878 0.47543 0.39791 0.50954 0.59944-7e-3 -0.2067-0.0858-0.40721-0.26149-0.58601 0.20154 8e-3 0.40205 2e-3 0.60255-0.0114v1e-3c0.18087 0.0413 0.42375 0.25322 0.47646 0.40721-0.032-0.15916-0.11782-0.30695-0.27596-0.42478 0.28733-0.0289 0.57051-0.0775 0.84957-0.14366-0.29146 0.0475-0.58705 0.0755-0.8816 0.0858 0.14675-0.14159 0.21187-0.30179 0.2222-0.46818-0.031 0.16123-0.24288 0.40514-0.41547 0.47128-0.16434 0-0.3297-5e-3 -0.493-0.0176 0.19947-0.14573 0.30696-0.32867 0.35037-0.52917-0.0682 0.1943-0.37621 0.45578-0.60358 0.50539-0.10232-0.0114-0.20257-0.0248-0.30386-0.0424-0.0579-8e-3 -0.13333-0.0269-0.22014-0.0558z"/>
    <path d="m53.364 62.663c5e-3 -1e-3 0-0.0124-5e-3 -0.0196-0.34623-0.36794-0.99322-0.12609-1.5503 0.37207-0.5116 0.45785-0.56638 1.3849-0.99632 1.7467 0.47646 0.185 0.3359 0.75344 0.84336 1.0397 0.28319 0.1602 0.61495 0.23668 0.95705 0.11783-1.2826-2.1353 0.21084-3.1719 0.75137-3.2566zm0.10439 2.3647c0.16433-0.0351 0.55087-0.45062 0.3731-0.86713-0.17466-0.40928-0.46715-0.52814-0.72863-0.41031-0.44855 0.49816 0.66662 0.81855 0.35553 1.2774zm-0.46819 0.82889c-0.35346-0.0754-1.0118-1.0408-0.5271-2.2128 0.093-0.22427 0.76998-1.2568 1.4552 0.30696-0.555-0.89607-1.0449-0.22531-1.0945 0.0589-0.0848 0.48576 0 0.80822 0.24287 0.97462 0.17157 0.11782 0.55707 0.31212 0.88884-0.10129-0.17674 0.49506-1.0542 0.61598-0.96532 0.97359zm2.9476-1.3994c0.0765-0.91468-0.53124-1.4004-0.78238-1.5544 0.19017-1.0759-0.78962-1.4666-1.1999-1.664 0.16536-0.22634 0.77101-0.46612 1.5823 0.31729 0.23255 0.22325 0.76378 0.0817 0.77101 0.1571 0.0496 0.51676 0.10956 0.5209 0.38861 0.93017 0.44235 0.65216-9e-3 1.7777-0.75964 1.8138zm-3.1636-3.4241c-0.53847 0.62942-1.0842 0.77824-1.5751 1.2588-0.863 0.83922-0.16743 1.7436-0.1633 1.7239 0.47852-2.2097 2.7275-2.0484 3.9171-1.1803 0.20464-1.1689-0.9095-1.0986-1.5813-1.7136-0.59117-0.5395 0.11576-0.92191-0.59737-0.0889zm-0.76688 0.51573c-0.52503 0.25838-0.78135 0.48059-1.1813 0.81235-0.52503 0.43408-0.49196 1.3064-0.05581 1.8159 0.13229 0.15503-0.3483 0.56741-0.77101 0.0527-0.44442-0.54157-0.41651-0.72554-0.75758-0.92811 0.61082-0.43925 0.79995-2.375 2.7657-1.7529zm1.017 4.6426c-1.2144 0.22738-2.0629-0.23978-2.4092-1.3829-0.23151 0.21291-0.38757 0.39894 0.26665 1.3715 0.21291 0.31833 0.10335 0.41961 0.12816 0.58188 0.19637-0.061 0.709-0.0145 1.0656-0.031 0.5271-0.0248 0.90434-0.14056 0.94878-0.5395zm0.62115-3.5502c0.83509 0.15709 1.9265 0.38654 2.1115 1.5792 0.21704 1.4128-0.6873 1.3591-0.6873 2.2438 0 0.0176-0.22221-0.10232-0.38654-0.0475-0.46095 0.15089-0.93431 0.0424-1.3705-0.1664-4e-3 -3e-3 1.0459-0.0331 1.4904-0.78651 0.62942-1.0687-0.63045-2.5787-1.1576-2.8226zm0.76585 3.081c0.26148-0.39688 0.42787-0.95292 0.20257-1.3281-0.0692 0.55707-0.46923 0.97462-1.1441 1.202-0.55397 0.18707-0.0506 0.41754 0.19534 0.34726 0.33072-0.0941 0.67902-0.46922 0.74621-0.22117zm0.0486-2.1818c-0.40411-0.14056-0.86403-0.98599-1.1079-0.67076 0.64699 0.73587 0.93121 1.1627 0.709 2.0309 0.19223-0.11885 0.37-0.31006 0.42478-0.54157 0.0982-0.42581-0.092-0.75757-0.0259-0.81855z"/>
    <path d="m49.619 62.836c-0.77721 0.25218-1.5338 0.60358-2.2624 1.0707-1.4965 0.96015-2.8598 1.8418-4.4814 2.4329-1.5389 0.56018-3.2701 0.62426-4.8111 0.0413-2.0185-0.76481-2.5518-2.7285-2.3988-2.4443 0.47026 0.87126 1.3694 1.7032 2.3337 2.0743 1.4314 0.55087 3.1461 0.38344 4.6778-0.13953 1.5937-0.5457 2.8804-1.4717 4.3966-2.4081 0.97668-0.60358 1.9627-1.0087 2.928-1.2661-0.14573 0.21291-0.26562 0.44029-0.38241 0.63872z"/>
    <path d="m27.658 62.057c0.21601-1.0728-1.1348-2.1632-2.4092-1.8293-1.4128 0.37104-2.5425 2.1776-1.54 4.1155 0.49403 0.95498 1.3291 1.6506 2.3461 2.0371 1.5431 0.58292 3.2722 0.51884 4.8131-0.0413 1.6226-0.59117 2.9848-1.4728 4.4814-2.4329 3.482-2.2324 7.6223-1.818 11.37-0.61185-1.4976-0.88057-6.7045-2.8898-11.655 0.16846-1.5152 0.93638-2.8009 1.8624-4.3966 2.4081-1.5317 0.52297-2.9931 0.58498-4.4225 0.0351-0.96635-0.37207-1.695-0.90227-2.1652-1.7735-0.94671-1.7549 0.03204-3.2536 1.2557-3.5894 1.0397-0.28525 2.2283 0.58602 2.3223 1.5141z"/>
    <path d="m33.931 64.178c-0.67076 0.39067-1.5162 0.49196-2.2975 0.41651-0.41444-0.0403-0.82372-0.14883-1.1731-0.35864-0.3483-0.2098-0.64286-0.52296-0.78135-0.9002-0.07028-0.1881-0.10335-0.39067-0.09095-0.59118 0.01447-0.19947 0.07441-0.39687 0.17777-0.5674 0.10439-0.17054 0.25425-0.31627 0.43201-0.40928 0.17777-0.0941 0.38344-0.13746 0.58394-0.11576 0.26252 0.0289 0.51573 0.17157 0.66559 0.38964 0.15089 0.21808 0.19637 0.51263 0.10542 0.76378-0.06201 0.17363-0.18707 0.32659-0.35243 0.41134-0.1633 0.0858-0.3669 0.10336-0.5395 0.0341-0.08682-0.0341-0.1664-0.0899-0.22738-0.1602-0.06098-0.0713-0.10542-0.15813-0.12402-0.25114-0.0217-0.0982-0.01241-0.20361 0.02479-0.29766-0.08372 0.0951-0.06718 0.26562-0.06098 0.30489 0.01757 0.0992 0.06098 0.1943 0.12506 0.27285 0.06408 0.0785 0.1478 0.14056 0.24081 0.1819 0.18707 0.0806 0.40928 0.0713 0.59428-0.0186s0.3297-0.25424 0.40618-0.44441c0.10955-0.27905 0.07235-0.60772-0.09199-0.863-0.16433-0.25425-0.44442-0.42581-0.74724-0.46922-0.23048-0.031-0.46922 0.0103-0.67903 0.11162-0.20877 0.10232-0.38757 0.26252-0.5147 0.45785-0.12816 0.19534-0.20464 0.42168-0.22738 0.65216-0.02274 0.23048 0.0072 0.46612 0.08165 0.68523 0.14986 0.43822 0.46716 0.80512 0.85473 1.0532 0.38654 0.24701 0.83406 0.38447 1.2816 0.43925 0.81339 0.10541 1.6361-0.03 2.3709-0.40205 0.14573-0.0744 0.03824-0.16123-0.03721-0.32556z"/>
    <path d="m42.578 65.904c-0.59841 0.25425-1.3105 0.25115-1.9503 0.10748-0.34003-0.0765-0.66869-0.20773-0.93638-0.41857-0.26665-0.20981-0.47852-0.50023-0.555-0.82786-0.03824-0.1633-0.04444-0.33486-0.01241-0.49919 0.03204-0.16434 0.10128-0.32246 0.20567-0.45269 0.10542-0.13126 0.24495-0.23668 0.40204-0.29456 0.15606-0.061 0.33176-0.0744 0.49506-0.0351 0.21394 0.0496 0.41134 0.1943 0.51263 0.3917 0.10232 0.19534 0.10955 0.44545 0.0072 0.64389-0.06925 0.13746-0.18913 0.25115-0.33486 0.30489-0.14366 0.0548-0.31523 0.0475-0.45165-0.0279-0.06822-0.0372-0.12816-0.092-0.17053-0.15606-0.04444-0.0651-0.07132-0.14159-0.07855-0.22014-0.0062-0.0847 0.01138-0.17156 0.05374-0.24598-0.08062 0.0713-0.08475 0.21394-0.08372 0.24805 0.0041 0.0837 0.03101 0.16536 0.07545 0.23874 0.04547 0.0713 0.10749 0.13229 0.18087 0.17467 0.14676 0.0868 0.3328 0.10232 0.49506 0.0475 0.16433-0.0568 0.29972-0.17673 0.38344-0.32763 0.11989-0.22014 0.12299-0.49712 0.01344-0.72553-0.10955-0.22738-0.32556-0.39998-0.57154-0.46613-0.18707-0.0496-0.38964-0.0413-0.57464 0.0217-0.18397 0.0641-0.34933 0.1788-0.47542 0.32763-0.12506 0.1478-0.21291 0.32763-0.25425 0.51676-0.04444 0.18914-0.04444 0.38654-0.0052 0.57671 0.07855 0.37827 0.30282 0.71727 0.59944 0.96325 0.29559 0.24495 0.65112 0.40411 1.017 0.49713 0.66456 0.17053 1.3612 0.14469 2.0102-0.0899 0.12919-0.0465 0.04857-0.12919 0.0031-0.27285z"/>
    <path d="m30.869 66.339c-0.5457 0.17364-1.0191 0.58705-1.3622 1.0511-0.18087 0.24701-0.3235 0.524-0.3793 0.81959-0.05684 0.29249-0.02791 0.60772 0.10955 0.87023 0.07028 0.13023 0.16536 0.24908 0.28215 0.34003 0.11679 0.0909 0.25425 0.15503 0.39998 0.1819 0.1478 0.0279 0.30076 0.0176 0.44028-0.0331 0.13746-0.0517 0.26355-0.14366 0.35036-0.26355 0.11266-0.15606 0.15916-0.3669 0.11369-0.55604-0.04651-0.18913-0.18707-0.35967-0.36897-0.43408-0.12609-0.0506-0.27389-0.0579-0.40101-9e-3 -0.12816 0.0465-0.23875 0.14986-0.28526 0.27905-0.02274 0.063-0.03204 0.13436-0.02274 0.2036 0.0083 0.0682 0.03514 0.1354 0.07648 0.19017 0.04444 0.0599 0.10645 0.10646 0.17673 0.13333-0.09405-1e-3 -0.1788-0.0941-0.19844-0.11782-0.04651-0.0579-0.07648-0.12816-0.08785-0.20154-0.0124-0.0744-0.0052-0.14986 0.0186-0.22118 0.04651-0.14262 0.16226-0.25941 0.30283-0.31626 0.14056-0.0568 0.30179-0.0558 0.44442-3e-3 0.20774 0.0775 0.37104 0.26045 0.43098 0.47542 0.05788 0.21498 0.01551 0.45372-0.11059 0.63976-0.09612 0.14159-0.23564 0.25218-0.39481 0.31625-0.1602 0.0641-0.33693 0.0827-0.50643 0.0558-0.17053-0.0269-0.3328-0.0951-0.47026-0.19638-0.13953-0.10128-0.25322-0.23357-0.339-0.38137-0.16743-0.29765-0.21394-0.65319-0.15916-0.98805 0.05374-0.3328 0.19844-0.64492 0.38964-0.91674 0.3421-0.4961 0.82062-0.88057 1.3891-1.0986 0.11265-0.0434 0.10749 0.0589 0.16123 0.18086z"/>
    <path d="m49.322 62.938c-0.678 0.21704-1.265 0.72864-1.6929 1.3064-0.22738 0.30696-0.40308 0.65112-0.47232 1.018-0.07028 0.36483-0.03514 0.75757 0.13746 1.0821 0.08578 0.16433 0.20567 0.31006 0.35037 0.42375 0.14469 0.11265 0.31626 0.1943 0.49816 0.22737 0.18087 0.0331 0.37207 0.0207 0.54467-0.0424 0.17363-0.0641 0.32866-0.17777 0.43615-0.32763 0.14056-0.1943 0.19947-0.45578 0.14159-0.6904-0.05685-0.23667-0.23151-0.44855-0.45889-0.5395-0.1571-0.0641-0.339-0.0723-0.49816-0.0134s-0.29559 0.18604-0.3545 0.34727c-0.02894 0.0806-0.03927 0.16743-0.02894 0.25321 0.01138 0.0848 0.04444 0.16847 0.09508 0.23668 0.05685 0.0754 0.13333 0.13436 0.22118 0.16536-0.11782-1e-3 -0.22324-0.11679-0.24701-0.14572-0.05684-0.0724-0.09509-0.15917-0.10955-0.25115-0.0155-0.0909-0.0072-0.18604 0.02273-0.27492 0.05891-0.17673 0.20154-0.32246 0.3762-0.39274 0.1757-0.0703 0.3762-0.0693 0.55294-4e-3 0.25942 0.0971 0.46199 0.32349 0.53537 0.59118 0.07338 0.26768 0.01963 0.56327-0.13643 0.79478-0.11989 0.17674-0.29352 0.31316-0.49196 0.39378-0.19844 0.0796-0.41755 0.10232-0.62942 0.0703-0.21187-0.0331-0.41341-0.11886-0.58601-0.24495-0.17157-0.12609-0.31419-0.29042-0.41961-0.47542-0.20877-0.37001-0.26562-0.81029-0.19844-1.2268 0.06821-0.41341 0.24702-0.80202 0.48472-1.141 0.42685-0.61598 1.0222-1.0935 1.7281-1.3653 0.13953-0.0537 0.13333 0.0734 0.19947 0.22531z"/>
    <path d="m24.114 70.462c0.27285 0.0744 0.62012 0.0651 0.79272-0.13229-0.3297 0.0641-0.64079-0.0848-0.89504-0.42272-0.20774-0.27698-0.24598 0.0486-0.1602 0.17467 0.11369 0.16847 0.39067 0.29662 0.26252 0.38034zm1.2475-0.37724c0.0062-0.25218 0.40101-0.66869 0.17777-0.74724-0.29869 0.50023-0.48886 0.73897-1.0232 0.77515 0.10335 0.0848 0.24495 0.15089 0.38654 0.13849 0.26045-0.0227 0.41341-0.19224 0.45889-0.1664zm1.4376-1.5493c-0.36897-1.1038-1.3601-0.98392-1.5482-0.99218 0.45579 0.12298 0.79892 0.27078 1.049 1.0563 0.06098 0.1943 0.13332 0.16536 0.49919-0.0641zm-0.19224 1.8459c0.20567-0.19327 0.61598-0.7369 0.21497-1.7746-0.26665 0.13022-0.39791 0.35346-0.27182 0.67489 0.21291 0.5457 0.154 0.82786 0.05684 1.0997zm0.34623-1.6474c-0.09508-0.34003-0.01344-0.0703-0.1602-0.39274-0.02377-0.0548-0.03721-0.0982-0.04651-0.15296-0.0083-0.0527-0.01033-0.0899-0.0062-0.13746 0.01757-0.1602 0.08268-0.25425 0.15296-0.35554 0.04651-0.061 0.07441-0.16846 0.08785-0.26665 0.0052-0.0568 0.0072-0.10852 0-0.17363-0.0031-0.0176-0.01137-0.0661-0.01964-0.0816-0.0072-0.0217-0.03721-0.0889-0.03514-0.0992 0.0072-0.0196 0.06718 0.0517 0.07441 0.0682 0.02274 0.0362 0.03721 0.0682 0.05168 0.11058 0.0279 0.0858 0.03617 0.1571 0.03927 0.24082 0.0021 0.0527 0.03204 0.26561 0.02894 0.41134-0.0052 0.20464-0.04444 0.34933-0.02997 0.3638 0.07441 0.0775 0.31523 2e-3 0.49403 0.0496 0.06201 0.0186 0.10852 0.0475 0.16743 0.10335 0.06305 0.0672 0.11162 0.13643 0.15503 0.23152 0 4e-3 0.01137 0.0207 0.0124 0.0269 1e-3 3e-3 0.0062 0.0134 0.0062 0.0196 0 6e-3 0.0031 0.0217-0.0041 0.0207-0.0031-2e-3 -0.0083-0.0103-0.01447-0.0124l-0.0062-4e-3c-0.0062-4e-3 -0.01344-0.0104-0.02067-0.0186-0.05168-0.061-0.09198-0.10336-0.14986-0.1416-0.04341-0.0269-0.07441-0.0351-0.11576-0.0372-0.08268 2e-3 -0.14469 0.0424-0.21187 0.0899-0.07131 0.0507-0.13849 0.10646-0.22324 0.12609-0.0041 1e-3 -0.0093 1e-3 -0.0124 2e-3 0.17053 0.24908 0.41134 0.17157 0.65629 0.37104 0.1726 0.14676 0.25528 0.37414 0.23874 0.60358l-0.0052 0.062v-2e-3l-0.03617-0.0786c-0.01964-0.094-0.03928-0.1943-0.09199-0.28318-0.22324-0.38344-0.71107-0.0186-0.97565-0.66353zm-1.8335 2.4495c0.58291-0.18603 0.7307-0.68006 0.76068-0.8723 0.21911-0.0475 0.5519-0.27388 0.66146-0.58704 0.1757 0.58394-0.23564 0.72864 0.07648 1.3198-0.44752-0.20464-1.1224 0.92294-1.4986 0.13952zm0.5364-1.8841c0.0021 3e-3 0.0083-1e-3 0.01033-7e-3 0.14573-0.26149-0.11265-0.58188-0.49816-0.80409-0.3545-0.2036-0.89194-0.062-1.1762-0.23875-0.0155 0.30283-0.36587 0.32867-0.43408 0.66766-0.03927 0.19017-0.02067 0.39068 0.10955 0.56224 0.97565-1.1183 1.8397-0.46818 1.9885-0.17983zm-1.324 0.49713c0.05064 0.0858 0.35967 0.22634 0.56224 0.0496 0.19947-0.17364 0.21394-0.36174 0.09819-0.48679-0.36587-0.1602-0.34106 0.52606-0.66042 0.43718zm-0.55604-0.11162c-0.02377-0.21291 0.40308-0.76171 1.1586-0.7059 0.14469 0.0114 0.85576 0.20257 0.09405 0.87746 0.40618-0.47852-0.06511-0.63045-0.23358-0.60668-0.29352 0.0413-0.46095 0.14986-0.5116 0.31729-0.03514 0.11886-0.07235 0.37207 0.22324 0.48163-0.31419-7e-3 -0.5457-0.47956-0.7307-0.3638zm2.0774 0.54777c0.24805-0.0682 0.49713-0.29456 0.62735-0.56534 0.13539-0.28526-0.29249-0.70177-0.13022-0.87334-0.25838 0.0289-0.29456-0.47232-0.88057-0.77721-0.63769-0.33176-1.0222 0.22738-1.0108 0.22634 1.3436-0.13745 1.6681 1.1586 1.3942 1.9896zm-1.3198-3.1326c1.0666 0.96738 1.1607 0.31006 1.7022 1.5028-0.09095-0.13849-0.28835-0.39687-0.44545-0.52296-0.47129-0.37414-1.1265-0.51987-1.4717 0.0444-0.06408 0.10232-0.38654-0.092-0.1726-0.42478 0.22531-0.3514 0.33486-0.36897 0.38757-0.59945zm-0.94154 2.6665c-0.35347-0.64389-0.24598-1.2072 0.34003-1.6133-0.16433-0.0909-0.29972-0.1447-0.7307 0.40411-0.14056 0.1788-0.21911 0.13539-0.30696 0.17983 0.07131 0.0992 0.13849 0.39687 0.21601 0.59428 0.11059 0.29352 0.24701 0.48369 0.48162 0.43512zm2.1311-0.30696c0.06511 0.50023 0.13539 1.1576-0.50746 1.4821-0.76274 0.38343-0.89814-0.13539-1.4004 0.0279-0.01033 4e-3 0.0155-0.14469-0.04547-0.22634-0.17053-0.23151-0.1974-0.51883-0.15916-0.80409 1e-3 -2e-3 0.21291 0.58395 0.72244 0.69453 0.7245 0.15814 1.3477-0.83095 1.3901-1.1741z"/>
   </g>
   <path d="m27.082 68.322c0.64079-0.59014 1.6299-1.5668 2.4825-1.8014 0.05994-0.0227 0.21187-0.0403 0.28422-0.0403 0.10129 0 0.16847 0.032 0.14469 0.14056-0.0186 0.0899-0.05478 0.11059-0.14469 0.11059-0.08165 0-0.14469 0.0104-0.22428 0.0279-0.84336 0.2005-1.7498 1.1048-2.4546 1.6061-0.21187 0.14986-0.17467 0.0372-0.08785-0.0434z"/>
   <g fill-rule="evenodd">
    <path d="m46.316 65.256c0.10439 0.40102 0.58704 0.93431 0.42788 1.5348-0.28526 1.079-1.3116 1.756-1.1782 2.5993-0.96118-1.1586-1.481-2.5683-0.80512-3.4634 0.26665-0.3545 0.72037-0.62839 1.4066-0.77515-0.07131 0.11472-0.12506 0.21704-0.15813 0.29559-0.03927 0.0941-0.07751 0.1881-0.11162 0.28215l0.0011-1e-3c-0.18603 0.23565-0.66146 0.44339-0.92501 0.41548 0.25942 0.0631 0.53433 0.0382 0.81959-0.11472-0.08061 0.24701-0.14676 0.49506-0.20051 0.74414-0.11576 0.20774-0.46509 0.43202-0.67593 0.44132 0.21084 0.0186 0.42271-0.0341 0.62528-0.18707-0.06511 0.3638-0.10542 0.73071-0.12299 1.0976 0.04548-0.37621 0.11369-0.74828 0.20671-1.1162 0.12402 0.22944 0.29766 0.36793 0.5023 0.43821-0.18913-0.0941-0.41651-0.44131-0.43822-0.67799 0.05891-0.20154 0.12299-0.40205 0.1974-0.60048 0.11059 0.29765 0.29869 0.49609 0.53227 0.62011-0.21601-0.15296-0.43202-0.62528-0.41341-0.9219 0.05168-0.12092 0.10439-0.24185 0.16123-0.3607 0.03204-0.0672 0.08165-0.154 0.14883-0.25012z"/>
    <path d="m32.469 66.04c0.13642 0.29662 0.58188 0.64286 0.5426 1.1286-0.07338 0.87334-0.77308 1.5358-0.55604 2.1694-0.90124-0.76481-1.4945-1.7839-1.0966-2.5683 0.15813-0.31006 0.47232-0.58187 0.98288-0.78961-0.04031 0.0992-0.06821 0.185-0.08165 0.25011-0.0186 0.0775-0.03411 0.15503-0.04858 0.23358v-1e-3c-0.11059 0.2067-0.45062 0.43305-0.65732 0.44545 0.20981 0.0145 0.41858-0.0424 0.61805-0.19844-0.02894 0.2005-0.04651 0.40101-0.05271 0.60255-0.06098 0.1757-0.30076 0.39687-0.46302 0.43305 0.1664-0.0155 0.32246-0.0858 0.45785-0.23048-0.0011 0.29042 0.0186 0.57878 0.05478 0.86506-0.01654-0.29662-0.01447-0.59428 0.0072-0.8909 0.12712 0.16123 0.28216 0.24391 0.44752 0.27079-0.15916-0.0476-0.38034-0.28526-0.42995-0.46406 0.01757-0.16433 0.04031-0.32866 0.06924-0.49196 0.12712 0.21498 0.29972 0.34313 0.49713 0.40721-0.1881-0.0889-0.41961-0.42374-0.44648-0.65629 0.0217-0.10128 0.04858-0.2005 0.07648-0.29972 0.01551-0.0558 0.04134-0.13126 0.07855-0.21498z"/>
    <path d="m29.935 65.313c-0.24081-0.34003-0.33796-1.0511-0.90227-1.3167-1.0118-0.4775-2.1921-0.13437-2.7544-0.77825 0.27078 1.479 1.018 2.7833 2.1404 2.8463 0.44338 0.0248 0.94568-0.14469 1.4996-0.5736-0.13229-0.0186-0.24701-0.0434-0.32763-0.0692-0.09819-0.03-0.19327-0.0631-0.28835-0.0971v1e-3c-0.29869-0.0104-0.76688 0.21704-0.91261 0.43615 0.11886-0.23771 0.31419-0.43305 0.61495-0.54984-0.23978-0.0982-0.47439-0.20774-0.70073-0.32763-0.23358-0.0465-0.63045 0.0755-0.77411 0.22944 0.12196-0.17053 0.29869-0.29868 0.54777-0.35449-0.32143-0.18397-0.62942-0.38965-0.92294-0.61289 0.31833 0.20774 0.64802 0.39585 0.99012 0.56121-0.09612-0.24185-0.08992-0.46406-0.0124-0.66456-0.04961 0.20464 0.06925 0.60151 0.23771 0.76998 0.19224 0.0858 0.38964 0.16536 0.58911 0.23668-0.15813-0.27595-0.18914-0.54674-0.13332-0.80512-0.0217 0.26251 0.2005 0.73174 0.44132 0.9095 0.12609 0.0393 0.25218 0.0754 0.38034 0.10852 0.07131 0.0186 0.17053 0.0372 0.28732 0.0506z"/>
    <path d="m38.801 61.427c-0.16433-0.44958-0.05891-1.2702-0.60461-1.7343-0.98082-0.83612-2.3988-0.80615-2.8288-1.6929-0.14676 1.727 0.28939 3.4013 1.5203 3.8086 0.48576 0.1602 1.0955 0.12299 1.8428-0.18707-0.14366-0.062-0.26252-0.12402-0.34623-0.17673-0.09819-0.063-0.19534-0.12712-0.29042-0.19327-0.32866-0.10128-0.91777 0.0124-1.1482 0.21188 0.20464-0.22841 0.48162-0.38758 0.85163-0.42788-0.23771-0.18191-0.46509-0.37311-0.68006-0.57465v1e-3c-0.24701-0.12196-0.7245-0.10542-0.93121 0.0227 0.18707-0.154 0.42375-0.24288 0.71727-0.23048-0.30179-0.30179-0.58188-0.62218-0.84232-0.95912 0.29249 0.3266 0.60255 0.63459 0.93328 0.92191-0.03514-0.29869 0.04031-0.54363 0.185-0.74414-0.11576 0.21394-0.10336 0.6904 0.03307 0.92915 0.1881 0.15399 0.3824 0.30075 0.58188 0.44028-0.09095-0.3545-0.04444-0.66559 0.09715-0.93431-0.10542 0.28422 0.0021 0.87333 0.21497 1.1431h-0.0011c0.12816 0.0806 0.25838 0.15917 0.39171 0.23461 0.07338 0.0424 0.17776 0.0941 0.30386 0.1416z"/>
    <path d="m36.332 62.085c-0.25528-0.25218-0.44545-0.83923-0.96221-0.97979-0.92914-0.25424-1.8769 0.21395-2.4505-0.24701 0.45165 1.2113 1.2805 2.2035 2.2407 2.0898 0.38034-0.0455 0.77928-0.26459 1.1855-0.71004-0.11679 4e-3 -0.21704 0-0.28939-0.0103-0.08682-0.0104-0.17363-0.0238-0.25838-0.0382-0.25425 0.0362-0.61702 0.29869-0.709 0.50746 0.06615-0.22014 0.20257-0.41341 0.43925-0.55914-0.21808-0.0465-0.43305-0.10439-0.64182-0.17363v1e-3c-0.20464-3e-3 -0.52296 0.15916-0.62115 0.31109 0.07751-0.1633 0.20774-0.29766 0.40928-0.38241-0.29972-0.10852-0.59118-0.23564-0.87333-0.38137 0.30076 0.12816 0.60875 0.23771 0.92294 0.32763-0.11886-0.1912-0.14573-0.37931-0.11059-0.56121-0.01138 0.18087 0.14986 0.49817 0.31833 0.61599 0.1757 0.0444 0.35346 0.0827 0.53226 0.11369-0.17466-0.21085-0.24081-0.43615-0.23254-0.66146 0.01963 0.22531 0.28008 0.58807 0.51056 0.7028 0.11162 0.0145 0.22427 0.0269 0.33796 0.0351 0.06408 5e-3 0.1509 7e-3 0.25218 0z"/>
    <path d="m52.702 60.531c-0.23874-0.42064-0.27078-1.2547-0.89296-1.6268-1.1141-0.66766-2.5197-0.40411-3.0985-1.2134 0.14366 1.7415 0.85886 3.3362 2.1508 3.5367 0.51056 0.0786 1.1121-0.0589 1.8025-0.49299-0.15193-0.0362-0.28215-0.0786-0.37207-0.11782-0.11058-0.0455-0.21704-0.0941-0.32349-0.14366h0.0011c-0.3452-0.0455-0.91261 0.16433-1.1079 0.40204 0.16433-0.26355 0.41444-0.46509 0.77618-0.56741-0.26768-0.14159-0.52503-0.29455-0.77411-0.45889h0.0011c-0.26665-0.0796-0.73897 0.0155-0.92191 0.17881 0.16123-0.18501 0.38034-0.31213 0.67386-0.34934-0.3514-0.25011-0.68316-0.52193-0.99736-0.81442 0.34416 0.27595 0.70487 0.53123 1.0811 0.76275-0.08372-0.29146-0.05064-0.54777 0.06201-0.77102-0.08062 0.23151 0.01241 0.70487 0.18707 0.91778 0.21187 0.12195 0.43098 0.23667 0.65216 0.3421-0.14986-0.33797-0.154-0.65423-0.05891-0.94672-0.05684 0.30179 0.1478 0.8692 0.40514 1.1017 0.14056 0.06 0.28318 0.11679 0.42788 0.1695 0.0816 0.03 0.19327 0.0631 0.32659 0.091z"/>
    <path d="m50.051 61.187c-0.27905-0.16536-0.57464-0.63975-1.0594-0.64905-0.87126-0.0207-1.5999 0.59738-2.2045 0.31729 0.66352 0.96532 1.6092 1.6547 2.4267 1.3457 0.3235-0.12299 0.62632-0.40205 0.88367-0.88264-0.10129 0.03-0.19017 0.0475-0.25632 0.0548-0.07855 9e-3 -0.1571 0.0165-0.23565 0.0227h0.0021c-0.21704 0.0878-0.47646 0.39791-0.51056 0.59944 0.0083-0.2067 0.08578-0.40721 0.26251-0.58601-0.20257 8e-3 -0.40307 2e-3 -0.60255-0.0114v1e-3c-0.18087 0.0413-0.42478 0.25322-0.47749 0.40721 0.03204-0.15916 0.11782-0.30695 0.27595-0.42478-0.28732-0.0289-0.57051-0.0775-0.84956-0.14366 0.29146 0.0475 0.58601 0.0755 0.8816 0.0858-0.14573-0.14159-0.21084-0.30179-0.22118-0.46818 0.02997 0.16123 0.24184 0.40514 0.41444 0.47128 0.16433 0 0.3297-5e-3 0.493-0.0176-0.19947-0.14573-0.30799-0.32867-0.34934-0.52917 0.06718 0.1943 0.37621 0.45578 0.60151 0.50539 0.10232-0.0114 0.20464-0.0248 0.30489-0.0424 0.05685-8e-3 0.13333-0.0269 0.22014-0.0558z"/>
    <path d="m43.997 64.855c-0.19637-0.24598-0.30386-0.77825-0.74208-0.95292-0.78651-0.31522-1.6619 0-2.1167-0.46095 0.27285 1.1048 0.89814 2.0546 1.7487 2.0505 0.33693-1e-3 0.709-0.15296 1.1069-0.50126-0.10128-8e-3 -0.1881-0.0227-0.25011-0.0372-0.07545-0.0186-0.14986-0.0393-0.22324-0.0599-0.22634 5e-3 -0.56844 0.19947-0.66869 0.37207 0.07855-0.185 0.21704-0.34107 0.43822-0.44545-0.18603-0.062-0.36587-0.13436-0.54363-0.21394-0.1788-0.0238-0.47336 0.0858-0.57568 0.20877 0.08578-0.13436 0.21394-0.23875 0.39894-0.29352-0.25218-0.12403-0.49403-0.26562-0.72657-0.41962 0.25115 0.1416 0.5085 0.26872 0.77515 0.37828-0.08475-0.1788-0.08992-0.34624-0.04134-0.50127-0.02791 0.1571 0.08062 0.45062 0.21601 0.56948 0.14986 0.0568 0.30076 0.10852 0.45578 0.15193-0.13229-0.20051-0.16846-0.40411-0.13746-0.60152-0.0052 0.19947 0.18604 0.54364 0.37414 0.66663 0.09818 0.0238 0.19534 0.0455 0.29352 0.0651 0.05478 0.0103 0.12919 0.0207 0.21808 0.0248z"/>
    <path d="m62.136 64.855c0.19741-0.24598 0.30386-0.77825 0.74207-0.95292 0.78756-0.31522 1.663 0 2.1167-0.46095-0.27285 1.1048-0.8971 2.0546-1.7477 2.0505-0.33693-1e-3 -0.70797-0.15296-1.108-0.50126 0.10232-8e-3 0.18914-0.0227 0.25218-0.0372 0.0744-0.0186 0.14883-0.0393 0.22221-0.0599h-1e-3c0.22738 5e-3 0.56948 0.19947 0.66973 0.37207-0.0786-0.185-0.21704-0.34107-0.43925-0.44545 0.18604-0.062 0.36794-0.13436 0.54467-0.21394h-1e-3c0.17984-0.0238 0.47439 0.0858 0.57568 0.20877-0.0847-0.13436-0.21188-0.23875-0.39791-0.29352 0.25218-0.12403 0.49402-0.26562 0.72553-0.41962-0.25011 0.1416-0.50849 0.26872-0.77514 0.37828 0.0868-0.1788 0.091-0.34624 0.0413-0.50127 0.0289 0.1571-0.0806 0.45062-0.21497 0.56948-0.14883 0.0568-0.30076 0.10852-0.45579 0.15193 0.13229-0.20051 0.16847-0.40411 0.13849-0.60152 4e-3 0.19947-0.18707 0.54364-0.37724 0.66663h2e-3c-0.0982 0.0238-0.19534 0.0455-0.29352 0.0651-0.0548 0.0103-0.13023 0.0207-0.21911 0.0248z"/>
   </g>
  </g>
  <g>
   <g transform="matrix(.26458 0 0 .26458 32.4 53.856)">
    <path d="m75.664 9.1289h-0.25c-2.2539 1.25-4.6289 1.875-7.1289 1.875-1 0-1.8789-0.125-2.7539-0.25-14.629-2.25-24.762-15.008-35.516-23.137 0.75-0.875 1.375-1.875 2.125-2.875 5.3789-8.5039 9.7539-17.508 13.883-26.512 0.5-0.125 1-0.125 1.5-0.125 15.008-2.1289 23.387-18.012 23.387-32.016-0.25-2.8789-0.75-8.1289-4.6289-8.1289-1 0-1.875 0.375-2.5 0.75-1.75 1.25-2.875 2.625-4 4.125-1 1.5-1.8789 3.0039-2.7539 4.6289-3.25 6.1289-6 12.504-8.8789 18.758-1.625 3.3789-3.125 6.7539-4.75 10.129-12.008-0.375-25.641-7.8789-24.391-21.133 0.62891-5.3789 3.7539-11.133 9.7578-11.133 4.625 0 9.5039 3.2539 10.504 7.5039 0.5 1.625 0.25 3.3789-0.375 4.8789-0.75 1.625-1.75 3-3 4.25v0.25h0.375c1.125-1.25 2.25-2.625 3-4.25s1-3.5039 0.625-5.2539c-1.25-4.875-6.3789-8.0039-11.254-8.0039-2.2539 0-4.3789 0.625-6.1289 2.125-2.625 2.5039-4.1289 6.0039-4.5039 9.5078-1.75 14.258 12.883 22.262 24.512 23.012-4.5 9.5039-9.2539 19.133-15.633 27.512-4.375-3.25-9.8789-4.875-15.258-4.875-6.25 0.25-12.629 5.5-11.129 12.004 1.125 4.8789 5.7539 7.1289 10.379 7.1289 5.3789 0 11.133-3.125 14.633-6.6289 0.875-1 1.8789-2.125 2.7539-3.125 0.5 0.25 1 0.625 1.5 1 11.629 8.2539 21.512 19.258 35.641 20.762 3.6289 0 7.0039-0.25391 10.133-2.3789v-0.125c0.125 0 0.125-0.125 0.125-0.25zm-24.762-61.656c2.75-6.3789 5.5-12.754 8.6289-18.758 1.25-2.5 3.25-6.1289 5.625-7.7539 0.625-0.375 1.125-0.5 1.3789-0.375 0.25 0 0.75 0.5 1 1.125 0.625 1.25 0.875 2.875 0.875 4.5039 0.125 6.625-1.875 13.379-5.2539 19.133-3.75 5.8789-8.8789 9.8789-15.883 10.879h-0.375c1.375-2.875 2.625-5.875 4.0039-8.7539zm-40.023 48.398c-1.625 0-3.25-0.375-4.625-1.125-1-0.625-1.75-1.625-2.125-2.75-0.87891-4.6289 4-7.6289 7.7539-7.7539 3.375 0 6.125 0.375 9.2539 1.875 1.375 0.5 2.625 1.125 3.875 1.875-4 4.7539-7.7539 7.8789-14.133 7.8789z"/>
   </g>
   <g transform="matrix(.26458 0 0 .26458 51.485 97.748)">
    <use x="171.2244" y="173.0233" width="100%" height="100%" xlink:actuate="onLoad" xlink:href="#glyph-0-1" xlink:show="embed" xlink:type="simple"/>
    <use x="82.787071" y="259.80283" width="100%" height="100%" xlink:actuate="onLoad" xlink:href="#glyph-1-1" xlink:show="embed" xlink:type="simple"/>
   </g>
   <g transform="matrix(.26458 0 0 .26458 28.64 76.817)">
    <path d="m9.1875 0.20312c-0.21875 0-0.39062-0.11719-0.51562-0.34375-0.11719-0.22656-0.17188-0.55078-0.17188-0.96875 0-0.28906 0.015625-0.51953 0.046875-0.6875l0.70312-4.7656h-4.6875l-0.73438 4.4062c-0.074219 0.34375-0.19922 0.62109-0.375 0.82812v0.015625c0.0625 0.023438 0.15625 0.058594 0.28125 0.10938 0.13281 0.042969 0.26953 0.0625 0.40625 0.0625 0.15625 0 0.3125-0.035156 0.46875-0.10938 0.16406-0.070312 0.27344-0.10938 0.32812-0.10938 0.082031 0 0.125 0.046875 0.125 0.14062 0 0.125-0.085938 0.26562-0.25 0.42188-0.49219 0.53125-0.88672 0.79688-1.1875 0.79688-0.11719 0-0.32812-0.050781-0.64062-0.15625-0.42969-0.11328-0.70312-0.17188-0.82812-0.17188-0.19922 0-0.40234 0.058594-0.60938 0.17188-0.21094 0.10547-0.33594 0.15625-0.375 0.15625-0.0625 0-0.09375-0.066406-0.09375-0.20312 0-0.13281 0.03125-0.25781 0.09375-0.375 0.070313-0.125 0.1875-0.26562 0.34375-0.42188 0.3125-0.28906 0.50781-0.49219 0.59375-0.60938 0.09375-0.11328 0.16406-0.28125 0.21875-0.5 0.0625-0.22656 0.14062-0.64844 0.23438-1.2656l1.4531-8.9688c-0.0625 0-0.24219-0.01563-0.53125-0.04687-0.074219-0.0078-0.17969-0.01953-0.3125-0.03125-0.125-0.0078-0.28125-0.01563-0.46875-0.01563-0.76172 0-1.3203 0.24219-1.6719 0.71875-0.023438 0.04297-0.070312 0.11719-0.14062 0.21875-0.0625 0.09375-0.12109 0.14062-0.17188 0.14062-0.0625 0-0.09375-0.0625-0.09375-0.1875s0.019531-0.23438 0.0625-0.32812c0.14453-0.55078 0.42578-0.97266 0.84375-1.2656 0.42578-0.30078 0.95312-0.45312 1.5781-0.45312l0.65625 0.01563c0.36328 0.02344 0.65625 0.03125 0.875 0.03125 0.23828 0 0.48828-0.0078 0.75-0.03125l0.40625-0.01563c-0.17969 0.59375-0.30469 1.1172-0.375 1.5625-0.074219 0.44922-0.11719 0.71484-0.125 0.79688l-0.53125 3.3594h4.7188l0.53125-3.1562c0.22656-1.4062 0.56641-2.5469 1.0156-3.4219 0.45703-0.875 1.0547-1.5352 1.7969-1.9844 0.73828-0.44531 1.6641-0.70703 2.7812-0.78125 0.21875-0.01953 0.4375-0.05469 0.65625-0.10938 0.11328-0.05078 0.19141-0.07813 0.23438-0.07813 0.0625 0 0.09375 0.04297 0.09375 0.125 0 0.15625-0.09375 0.32812-0.28125 0.51562-0.17969 0.1875-0.49219 0.32031-0.9375 0.39062-0.82422 0.10547-1.4766 0.32422-1.9531 0.65625-0.48047 0.33594-0.86719 0.84375-1.1562 1.5312-0.29297 0.67969-0.53125 1.6328-0.71875 2.8594l-1.3906 8.9844c-0.04297 0.23047-0.0625 0.40234-0.0625 0.51562 0 0.13672 0.01953 0.23047 0.0625 0.28125 0.05078 0.042969 0.11719 0.0625 0.20312 0.0625 0.15625 0 0.30469-0.039063 0.45312-0.125 0.14453-0.09375 0.3125-0.21875 0.5-0.375 0.16406-0.13281 0.27344-0.20312 0.32812-0.20312 0.07031 0 0.10938 0.0625 0.10938 0.1875 0 0.24219-0.16406 0.53906-0.48438 0.89062-0.3125 0.34375-0.67969 0.65234-1.0938 0.92188-0.41797 0.25781-0.74609 0.39062-0.98438 0.39062z"/>
   </g>
   <g transform="matrix(.26458 0 0 .26458 33.928 76.817)">
    <path d="m8.3125 0.20312c-0.61719 0-0.99609-0.44531-1.1406-1.3438-0.11719-0.71875-0.17188-2.0039-0.17188-3.8594l-0.5 0.375h-2.3906c-0.30469 0.77344-0.65234 1.4648-1.0469 2.0781-0.39844 0.61719-0.82031 1.0742-1.2656 1.375v0.03125c0.17578 0.085937 0.34375 0.125 0.5 0.125 0.19531 0 0.37891-0.03125 0.54688-0.09375 0.17578-0.070313 0.28516-0.10938 0.32812-0.10938 0.09375 0 0.14062 0.039062 0.14062 0.10938 0 0.085937-0.09375 0.24219-0.28125 0.46875-0.21094 0.21094-0.43359 0.37109-0.67188 0.48438-0.23047 0.10547-0.44922 0.15625-0.65625 0.15625-0.16797 0-0.40625-0.050781-0.71875-0.15625-0.3125-0.10156-0.54688-0.15625-0.70312-0.15625-0.19922 0-0.39453 0.054688-0.59375 0.15625-0.20703 0.10547-0.34375 0.15625-0.40625 0.15625-0.070312 0-0.10938-0.03125-0.10938-0.09375 0-0.13281 0.054687-0.28906 0.15625-0.46875 0.10547-0.17578 0.23047-0.29688 0.375-0.35938 0.085937-0.039063 0.16406-0.066406 0.23438-0.078125 0.070312-0.00781 0.16016-0.035156 0.26562-0.078125 0.5-0.19531 0.94141-0.55078 1.3281-1.0625 0.38281-0.51953 0.71094-1.1016 0.98438-1.75 0.28125-0.64453 0.59766-1.4727 0.95312-2.4844 0.40625-1.1328 0.75391-2.0547 1.0469-2.7656 0.28906-0.70703 0.64062-1.3633 1.0469-1.9688 0.40625-0.61328 0.86719-1.0938 1.3906-1.4375v-0.01563c-0.17969-0.01953-0.3125-0.04687-0.40625-0.07813-0.054687-0.0078-0.21484-0.03516-0.48438-0.07813-0.27344-0.03906-0.61719-0.0625-1.0312-0.0625-0.69922 0-1.2891 0.13672-1.7656 0.40625-0.48047 0.26172-0.92969 0.68359-1.3438 1.2656-0.13672 0.21094-0.24219 0.3125-0.3125 0.3125-0.085937 0-0.125-0.05078-0.125-0.15625l0.03125-0.20312c0.1875-0.78906 0.62891-1.4258 1.3281-1.9062 0.70703-0.48828 1.5234-0.73438 2.4531-0.73438 0.375 0 0.94141 0.07031 1.7031 0.20312 0.69531 0.125 1.1953 0.1875 1.5 0.1875 0.34375 0 0.70312-0.0625 1.0781-0.1875v0.01563c-0.35547 0.58594-0.63281 1.5-0.82812 2.75-0.1875 1.25-0.28125 2.7969-0.28125 4.6406 0 1.8984 0.035156 3.1797 0.10938 3.8438 0.03125 0.375 0.085937 0.65625 0.17188 0.84375 0.082031 0.1875 0.22656 0.28125 0.4375 0.28125 0.13281 0 0.25781-0.03125 0.375-0.09375 0.125-0.0625 0.29688-0.16016 0.51562-0.29688 0.23828-0.16406 0.39453-0.25 0.46875-0.25 0.07031 0 0.10938 0.027344 0.10938 0.078125 0 0.10547-0.03906 0.23047-0.10938 0.375-0.25 0.4375-0.58984 0.82031-1.0156 1.1406-0.42969 0.3125-0.83594 0.46875-1.2188 0.46875zm-1.2969-6c0.019531-1.207 0.10156-2.3984 0.25-3.5781 0.14453-1.1875 0.32812-2.1484 0.54688-2.8906h-0.015625c-0.51172 0.24219-1.0078 0.8125-1.4844 1.7188-0.46875 0.89844-1.0117 2.2578-1.625 4.0781l-0.21875 0.67188z"/>
   </g>
   <g transform="matrix(.26458 0 0 .26458 38.574 76.817)">
    <path d="m0.84375 0c-0.085938 0-0.125-0.046875-0.125-0.14062 0-0.15625 0.070312-0.34766 0.21875-0.57812 0.15625-0.23828 0.33594-0.39453 0.54688-0.46875l0.54688-0.25c0.1875-0.082031 0.31641-0.24219 0.39062-0.48438 0.070313-0.25 0.14453-0.66406 0.21875-1.25l1.3125-9.2969c-0.26172 0-0.50781 0.01172-0.73438 0.03125-0.28125 0.02344-0.53125 0.05859-0.75 0.10938-0.21875 0.054687-0.35547 0.078125-0.40625 0.078125-0.085938 0-0.125-0.03516-0.125-0.10938 0-0.10156 0.054688-0.24219 0.17188-0.42188 0.15625-0.23828 0.33594-0.42188 0.54688-0.54688 0.21875-0.125 0.47266-0.19531 0.76562-0.21875l2.7656-0.046875c0.35156-0.01953 0.61719-0.05469 0.79688-0.10938 0.17578-0.05078 0.28906-0.07813 0.34375-0.07813 0.09375 0 0.14062 0.04297 0.14062 0.125 0 0.10547-0.054688 0.23438-0.15625 0.39062-0.14844 0.25-0.27344 0.42188-0.375 0.51562-0.10547 0.08594-0.28906 0.14062-0.54688 0.17188l-0.96875 0.0625-1.4844 10.422c-0.074219 0.35547-0.19922 0.61719-0.375 0.78125v0.015625c0.13281 0.03125 0.30469 0.074219 0.51562 0.125 0.21875 0.042969 0.41016 0.0625 0.57812 0.0625 0.21875 0 0.39844-0.039063 0.54688-0.125 0.14453-0.082031 0.23438-0.125 0.26562-0.125 0.0625 0 0.09375 0.042969 0.09375 0.125 0 0.13672-0.078125 0.28906-0.23438 0.45312-0.46875 0.52344-0.92969 0.78125-1.375 0.78125-0.15625 0-0.39844-0.046875-0.71875-0.14062-0.5-0.11328-0.83984-0.17188-1.0156-0.17188-0.25 0-0.53125 0.054688-0.84375 0.15625-0.30469 0.10547-0.48047 0.15625-0.53125 0.15625z"/>
   </g>
   <g transform="matrix(.26458 0 0 .26458 42.308 76.817)">
    <path d="m9.4844 0.20312c-0.34375 0-0.64844-0.12109-0.90625-0.35938-0.25-0.25-0.46484-0.62891-0.64062-1.1406l-1.1719-3.1719c-0.14844-0.40625-0.29688-0.70312-0.45312-0.89062-0.14844-0.19531-0.35938-0.34375-0.64062-0.4375-0.28125-0.10156-0.68359-0.15625-1.2031-0.15625l-0.625 3.7969c-0.0625 0.34375-0.1875 0.62109-0.375 0.82812v0.015625c0.0625 0.023438 0.16016 0.058594 0.29688 0.10938 0.14453 0.042969 0.27344 0.0625 0.39062 0.0625 0.16406 0 0.32812-0.035156 0.48438-0.10938 0.15625-0.070312 0.25781-0.10938 0.3125-0.10938 0.082031 0 0.125 0.042969 0.125 0.125 0 0.11719-0.078125 0.26172-0.23438 0.4375-0.5 0.53125-0.90234 0.79688-1.2031 0.79688-0.10547 0-0.32422-0.050781-0.65625-0.15625-0.38672-0.11328-0.65234-0.17188-0.79688-0.17188-0.21094 0-0.42188 0.058594-0.64062 0.17188-0.21094 0.10547-0.32812 0.15625-0.35938 0.15625-0.0625 0-0.09375-0.066406-0.09375-0.20312 0-0.13281 0.03125-0.25781 0.09375-0.375 0.070312-0.125 0.1875-0.26562 0.34375-0.42188 0.30078-0.26953 0.49219-0.46875 0.57812-0.59375 0.09375-0.125 0.16406-0.28906 0.21875-0.5 0.050781-0.20703 0.12891-0.63281 0.23438-1.2812l1.2031-6.9688c0.050781-0.32031 0.27344-0.64453 0.67188-0.96875 0.39453-0.33203 0.75-0.5 1.0625-0.5 0.13281 0 0.20312 0.03125 0.20312 0.09375 0 0.04297-0.0625 0.15234-0.1875 0.32812-0.125 0.17969-0.21875 0.48438-0.28125 0.92188l-0.54688 3.5469c0.16406 0.042969 0.47266 0.0625 0.92188 0.0625 0.92578 0 1.6484-0.28125 2.1719-0.84375 0.53125-0.57031 0.79688-1.3438 0.79688-2.3125 0-1.8125-1-2.7188-3-2.7188-1.5938 0-2.9062 0.57422-3.9375 1.7188-0.10547 0.125-0.19922 0.23047-0.28125 0.3125-0.074219 0.07422-0.14844 0.10938-0.21875 0.10938-0.085937 0-0.125-0.04687-0.125-0.14062 0-0.08203 0.00391-0.15625 0.015625-0.21875 0.125-0.45703 0.42188-0.90625 0.89062-1.3438s1.0703-0.79688 1.8125-1.0781c0.75-0.28125 1.5781-0.42188 2.4844-0.42188 1.207 0 2.1562 0.27734 2.8438 0.82812 0.6875 0.55469 1.0312 1.3281 1.0312 2.3281 0 1.0117-0.32422 1.9023-0.96875 2.6719-0.64844 0.77344-1.4766 1.3047-2.4844 1.5938 0.70703 0.23047 1.2188 0.75 1.5312 1.5625l0.98438 2.6562c0.125 0.32422 0.25391 0.5625 0.39062 0.71875 0.13281 0.14844 0.31641 0.21875 0.54688 0.21875 0.3125 0 0.61719-0.16406 0.92188-0.5 0.05078-0.070312 0.10156-0.14453 0.15625-0.21875 0.0625-0.082031 0.11719-0.125 0.17188-0.125 0.10156 0 0.15625 0.089844 0.15625 0.26562 0 0.3125-0.10547 0.625-0.3125 0.9375-0.19922 0.3125-0.45312 0.57031-0.76562 0.76562s-0.625 0.29688-0.9375 0.29688z"/>
   </g>
   <g transform="matrix(.26458 0 0 .26458 51.485 97.748)">
    <use x="164.89008" y="259.80283" width="100%" height="100%" xlink:actuate="onLoad" xlink:href="#glyph-1-1" xlink:show="embed" xlink:type="simple"/>
   </g>
   <g transform="matrix(.26458 0 0 .26458 50.366 76.817)">
    <path d="m3.25 0.20312c-0.76172 0-1.4062-0.25-1.9375-0.75-0.52344-0.5-0.78125-1.2383-0.78125-2.2188 0-1.0195 0.3125-1.9883 0.9375-2.9062 0.625-0.91406 1.4883-1.6797 2.5938-2.2969-0.25-0.91406-0.375-1.6602-0.375-2.2344 0-0.60156 0.13281-1.1797 0.40625-1.7344 0.26953-0.5625 0.64453-1.0078 1.125-1.3438 0.48828-0.34375 1.0352-0.51562 1.6406-0.51562 0.66406 0 1.1016 0.17969 1.3125 0.53125 0.21875 0.35547 0.32812 0.73438 0.32812 1.1406 0 1.3047-1.0117 2.6367-3.0312 4 0.050781 0.27344 0.21094 0.76562 0.48438 1.4844 0.48828-0.50781 1.0312-0.85156 1.625-1.0312 0.59375-0.17578 1.3984-0.26562 2.4219-0.26562l1.4688 0.015625c0.71875 0 1.2969-0.16406 1.7344-0.5 0.4375-0.34375 0.65625-0.80469 0.65625-1.3906 0-0.23828-0.03125-0.42188-0.09375-0.54688-0.0625-0.13281-0.13672-0.25391-0.21875-0.35938-0.07422-0.10156-0.10938-0.17578-0.10938-0.21875 0-0.125 0.14062-0.36328 0.42188-0.71875 0.28906-0.35156 0.48828-0.53125 0.59375-0.53125 0.01953 0 0.04687 0.02734 0.07813 0.07813 0.09375 0.21875 0.16016 0.42188 0.20312 0.60938 0.03906 0.17969 0.0625 0.40234 0.0625 0.67188 0 0.80469-0.20312 1.5117-0.60938 2.125-0.40625 0.61719-0.98438 1.0938-1.7344 1.4375-0.74219 0.33594-1.5938 0.5-2.5625 0.5h-0.09375c-0.19922 0.80469-0.48047 1.5898-0.84375 2.3594-0.35547 0.76172-0.78906 1.4336-1.2969 2.0156 0.44531 0.85547 0.86719 1.2812 1.2656 1.2812 0.28906 0 0.625-0.26953 1-0.8125 0.00781-0.019531 0.035156-0.0625 0.078125-0.125 0.05078-0.0625 0.09375-0.09375 0.125-0.09375 0.10156 0 0.15625 0.074219 0.15625 0.21875l-0.031255 0.23437c-0.05469 0.24219-0.1875 0.50781-0.40625 0.79688-0.21875 0.29297-0.46875 0.54688-0.75 0.76562-0.27344 0.21875-0.54297 0.32812-0.8125 0.32812-0.26172 0-0.52344-0.12109-0.78125-0.35938-0.26172-0.25-0.54297-0.62891-0.84375-1.1406-0.57422 0.49219-1.1562 0.86719-1.75 1.125-0.58594 0.25-1.1367 0.375-1.6562 0.375zm2.0469-8.8594c0.625-0.4375 1.1016-0.89844 1.4375-1.3906 0.34375-0.48828 0.51562-0.97656 0.51562-1.4688 0-0.45703-0.10156-0.82031-0.29688-1.0938-0.19922-0.28125-0.48438-0.42188-0.85938-0.42188-0.40625 0-0.71094 0.16797-0.90625 0.5-0.19922 0.32422-0.29688 0.76562-0.29688 1.3281 0 0.625 0.13281 1.4766 0.40625 2.5469zm-1.0469 7.8281c0.67578 0 1.3906-0.32031 2.1406-0.96875-0.44922-0.90625-0.83984-1.8008-1.1719-2.6875-0.32422-0.88281-0.64844-1.875-0.96875-2.9688-0.67969 0.42969-1.1992 0.99219-1.5625 1.6875-0.36719 0.6875-0.54688 1.4453-0.54688 2.2656 0 0.92969 0.20312 1.6055 0.60938 2.0312 0.41406 0.42969 0.91406 0.64062 1.5 0.64062zm3.125-2.125c0.32031-0.53906 0.59766-1.1562 0.82812-1.8438 0.23828-0.69531 0.40625-1.3516 0.5-1.9688h-0.09375c-0.59375 0-1.0898 0.054687-1.4844 0.15625-0.39844 0.10547-0.71875 0.27734-0.96875 0.51562 0.57031 1.6797 0.97656 2.7266 1.2188 3.1406z"/>
   </g>
   <g transform="matrix(.26458 0 0 .26458 51.485 97.748)">
    <use x="197.57889" y="259.80283" width="100%" height="100%" xlink:actuate="onLoad" xlink:href="#glyph-1-1" xlink:show="embed" xlink:type="simple"/>
   </g>
   <g transform="matrix(.26458 0 0 .26458 59.015 76.817)">
    <path d="m3.0625 0.20312c-0.59375 0-1.1016-0.12109-1.5156-0.35938-0.41797-0.25-0.73438-0.53906-0.95312-0.875-0.21094-0.34375-0.32812-0.66406-0.35938-0.96875 0-0.25781 0.070313-0.52344 0.21875-0.79688 0.14453-0.28125 0.3125-0.50781 0.5-0.6875 0.19531-0.1875 0.34766-0.28125 0.45312-0.28125 0.070312 0 0.10938 0.042969 0.10938 0.125 0.0625 0.71875 0.25391 1.375 0.57812 1.9688 0.33203 0.59375 0.92188 0.89062 1.7656 0.89062 0.67578 0 1.2188-0.20703 1.625-0.625 0.40625-0.41406 0.60938-1 0.60938-1.75 0-0.44531-0.089844-0.85938-0.26562-1.2344-0.16797-0.375-0.44531-0.79688-0.82812-1.2656l-1.9219-2.2812c-0.21094-0.26953-0.375-0.55078-0.5-0.84375-0.11719-0.30078-0.17188-0.66016-0.17188-1.0781 0-0.67578 0.15625-1.3125 0.46875-1.9062 0.3125-0.60156 0.76953-1.0938 1.375-1.4688 0.60156-0.375 1.3008-0.5625 2.0938-0.5625 0.65625 0 1.1914 0.13672 1.6094 0.40625 0.41406 0.27344 0.625 0.65234 0.625 1.1406 0 0.38672-0.15625 0.82422-0.46875 1.3125-0.11719 0.19922-0.24609 0.29688-0.39062 0.29688-0.10547 0-0.17188-0.04687-0.20312-0.14062-0.03125-0.10156-0.0625-0.28516-0.09375-0.54688-0.03125-1.0391-0.59375-1.5625-1.6875-1.5625-0.64844 0-1.1562 0.16797-1.5312 0.5-0.36719 0.33594-0.54688 0.78906-0.54688 1.3594 0 0.57422 0.24219 1.1562 0.73438 1.75l1.875 2.1719c0.8125 0.94922 1.2188 1.9492 1.2188 3 0 0.75-0.21484 1.4609-0.64062 2.125-0.41797 0.65625-0.96875 1.1875-1.6562 1.5938-0.6875 0.39453-1.3984 0.59375-2.125 0.59375z"/>
   </g>
   <g transform="matrix(.26458 0 0 .26458 63.137 76.817)">
    <path d="m3.0625 0.015625c-0.03125 0-0.058594-0.011719-0.078125-0.03125-0.023437-0.019531-0.03125-0.046875-0.03125-0.078125 0-0.10156 0.054687-0.23828 0.17188-0.40625 0.11328-0.17578 0.22266-0.31641 0.32812-0.42188 0.21875-0.19531 0.37891-0.36328 0.48438-0.5 0.11328-0.13281 0.21875-0.33203 0.3125-0.59375 0.09375-0.25781 0.1875-0.64453 0.28125-1.1562l1.5625-9.1094h-1.3281c-0.96094 0-1.6211 0.10938-1.9844 0.32812-0.36719 0.21094-0.54688 0.58984-0.54688 1.1406 0 0.375 0.0625 0.6875 0.1875 0.9375 0.125 0.24219 0.1875 0.38672 0.1875 0.4375 0 0.10547-0.070313 0.26562-0.20312 0.48438-0.125 0.21875-0.27734 0.41797-0.45312 0.59375-0.16797 0.17969-0.30469 0.26562-0.40625 0.26562-0.042969 0-0.078125-0.023438-0.10938-0.078125-0.09375-0.15625-0.17188-0.36328-0.23438-0.625-0.0625-0.25781-0.09375-0.53516-0.09375-0.82812 0-0.78125 0.19531-1.4688 0.59375-2.0625 0.39453-0.60156 0.95312-1.0703 1.6719-1.4062 0.71875-0.33203 1.5508-0.5 2.5-0.5h3.375c0.67578 0 1.1953-0.04687 1.5625-0.14062 0.36328-0.10156 0.61328-0.25781 0.75-0.46875 0.14453-0.20703 0.21875-0.48828 0.21875-0.84375 0-0.39453-0.0625-0.70703-0.1875-0.9375-0.11719-0.23828-0.17188-0.37891-0.17188-0.42188 0-0.08203 0.0625-0.23438 0.1875-0.45312 0.13281-0.22656 0.28516-0.42969 0.45312-0.60938 0.16406-0.1875 0.30078-0.28125 0.40625-0.28125 0.0625 0 0.09766 0.02344 0.10938 0.0625 0.23828 0.375 0.35938 0.88281 0.35938 1.5156 0 0.77344-0.19922 1.4531-0.59375 2.0469-0.39844 0.58594-0.96094 1.0391-1.6875 1.3594-0.71875 0.32422-1.5625 0.48438-2.5312 0.48438h-0.59375l-1.7344 10.094c-0.023437 0.21094-0.070313 0.375-0.14062 0.5-0.0625 0.11719-0.15234 0.24609-0.26562 0.39062v0.046875c0.22656 0.09375 0.48828 0.14062 0.78125 0.14062 0.16406 0 0.33203-0.03125 0.5-0.09375 0.16406-0.070313 0.27344-0.10938 0.32812-0.10938 0.070312 0 0.10938 0.03125 0.10938 0.09375 0 0.10547-0.054687 0.21875-0.15625 0.34375-0.28125 0.32422-0.52734 0.55469-0.73438 0.6875-0.19922 0.13672-0.38672 0.20312-0.5625 0.20312-0.13672 0-0.375-0.050781-0.71875-0.15625-0.36719-0.10156-0.62109-0.15625-0.76562-0.15625-0.17969 0-0.42969 0.070313-0.75 0.20312-0.21094 0.074219-0.32812 0.10938-0.35938 0.10938z"/>
   </g>
   <g transform="matrix(.26458 0 0 .26458 67.829 76.817)">
    <path d="m2.625 0c-0.0625 0-0.09375-0.070312-0.09375-0.21875 0-0.11328 0.023438-0.22266 0.078125-0.32812 0.0625-0.11328 0.17578-0.26562 0.34375-0.45312 0.09375-0.09375 0.22656-0.21875 0.40625-0.375 0.1875-0.15625 0.32812-0.375 0.42188-0.65625s0.20312-0.75391 0.32812-1.4219l0.28125-1.5469c0.070313-0.38281 0.10938-0.875 0.10938-1.4688 0-0.84375-0.074219-1.7227-0.21875-2.6406-0.14844-0.91406-0.36719-1.6797-0.65625-2.2969-0.29297-0.61328-0.63281-0.92188-1.0156-0.92188-0.38672 0-0.72656 0.27344-1.0156 0.8125-0.085938 0.125-0.15234 0.22656-0.20312 0.29688-0.042969 0.0625-0.089844 0.09375-0.14062 0.09375-0.09375 0-0.14062-0.09375-0.14062-0.28125 0-0.38281 0.082031-0.75781 0.25-1.125 0.17578-0.375 0.41016-0.67578 0.70312-0.90625 0.30078-0.23828 0.625-0.35938 0.96875-0.35938 0.85156 0 1.4883 0.63281 1.9062 1.8906 0.42578 1.2617 0.70703 2.7188 0.84375 4.375h0.015625c0.35156-1 0.79688-1.9766 1.3281-2.9375 0.53125-0.95703 1.1133-1.75 1.75-2.375 0.64453-0.63281 1.2695-0.95312 1.875-0.95312 0.30078 0 0.55469 0.0625 0.76562 0.1875 0.20703 0.11719 0.3125 0.23047 0.3125 0.34375 0 0.09375-0.08594 0.27734-0.25 0.54688-0.16797 0.27344-0.35156 0.53125-0.54688 0.78125-0.1875 0.24219-0.29297 0.34375-0.3125 0.3125-0.19922-0.20703-0.40625-0.3125-0.625-0.3125-0.55469 0-1.125 0.36719-1.7188 1.0938-0.58594 0.73047-1.1016 1.6211-1.5469 2.6719-0.44922 1.043-0.76172 2-0.9375 2.875l-0.5625 3.1406c-0.074219 0.34375-0.21875 0.62109-0.4375 0.82812v0.015625c0.03125 0.011719 0.125 0.042969 0.28125 0.09375 0.16406 0.054688 0.33594 0.078125 0.51562 0.078125 0.16406 0 0.32812-0.035156 0.48438-0.10938 0.16406-0.070312 0.26953-0.10938 0.3125-0.10938 0.082031 0 0.125 0.042969 0.125 0.125 0 0.11719-0.078125 0.26172-0.23438 0.4375-0.48047 0.53125-0.91406 0.79688-1.2969 0.79688-0.125 0-0.34375-0.050781-0.65625-0.15625-0.375-0.11328-0.64062-0.17188-0.79688-0.17188-0.24219 0-0.46094 0.058594-0.65625 0.17188-0.1875 0.10547-0.30469 0.15625-0.34375 0.15625z"/>
   </g>
   <g transform="matrix(.26458 0 0 .26458 72.491 76.817)">
    <path d="m-0.5625 0c-0.039062 0-0.070312-0.019531-0.09375-0.0625-0.019531-0.039062-0.03125-0.078125-0.03125-0.10938 0-0.17578 0.074219-0.375 0.21875-0.59375 0.14844-0.22656 0.32422-0.42578 0.53125-0.59375 0.21875-0.16406 0.42578-0.25 0.625-0.25h0.45312c0.17578-0.22656 0.32812-0.49219 0.45312-0.79688 0.125-0.3125 0.23438-0.75781 0.32812-1.3438l1.1875-6.9688c0.082031-0.53125 0.25-1.0312 0.5-1.5 0.25-0.47656 0.61719-0.95703 1.1094-1.4375 0.875-0.875 1.8438-1.3125 2.9062-1.3125 0.25781 0 0.51953 0.02734 0.78125 0.07813 0.26953 0.04297 0.49219 0.10938 0.67188 0.20312 0.15625 0.08594 0.23438 0.16406 0.23438 0.23438 0 0.11719-0.15234 0.24609-0.45312 0.39062-0.30469 0.13672-0.54688 0.20312-0.73438 0.20312-0.054688 0-0.19922-0.03125-0.4375-0.09375-0.23047-0.0625-0.46875-0.09375-0.71875-0.09375-0.44922 0-0.875 0.15625-1.2812 0.46875-0.26172 0.21093-0.47656 0.51562-0.64062 0.92187-0.16797 0.40625-0.30859 0.92188-0.42188 1.5469l-1.4531 8.1875c-0.054687 0.27344-0.13672 0.53906-0.25 0.79688-0.11719 0.25-0.25 0.44922-0.40625 0.59375v0.015625c0.23828 0.054687 0.6875 0.10547 1.3438 0.15625 0.65625 0.042969 1.1641 0.0625 1.5312 0.0625 1.1328 0 2.1641-0.26953 3.0938-0.8125 0.11328-0.082031 0.19531-0.125 0.25-0.125 0.09375 0 0.14062 0.074219 0.14062 0.21875 0 0.25-0.18359 0.53906-0.54688 0.85938-0.35547 0.3125-0.83984 0.58594-1.4531 0.8125-0.60547 0.23047-1.2461 0.34375-1.9219 0.34375-0.32422 0-0.92969-0.050781-1.8125-0.15625-0.13672-0.007812-0.43359-0.039062-0.89062-0.09375-0.46094-0.050781-0.87109-0.078125-1.2344-0.078125-0.375 0-0.66406 0.023437-0.85938 0.0625-0.1875 0.042969-0.33594 0.10156-0.45312 0.17188-0.125 0.0625-0.21094 0.09375-0.26562 0.09375z"/>
   </g>
   <g transform="matrix(.26458 0 0 .26458 76.779 76.817)">
    <path d="m0.84375 0c-0.085938 0-0.125-0.046875-0.125-0.14062 0-0.26953 0.14844-0.53516 0.45312-0.79688 0.22656-0.20703 0.39453-0.39453 0.5-0.5625 0.11328-0.16406 0.21094-0.39062 0.29688-0.67188 0.082031-0.28125 0.17188-0.69531 0.26562-1.25l1.4531-8.9375h-0.078125c-0.625 0-1.1016 0.07031-1.4219 0.20312-0.32422 0.125-0.57422 0.25781-0.75 0.39062-0.16797 0.13672-0.26562 0.20312-0.29688 0.20312-0.085937 0-0.125-0.05469-0.125-0.17188 0-0.11328 0.019531-0.21094 0.0625-0.29688 0.14453-0.45703 0.5-0.83203 1.0625-1.125 0.5625-0.28906 1.332-0.4375 2.3125-0.4375 0.45703 0 1.0234 0.03125 1.7031 0.09375 1.0391 0.0625 1.6641 0.09375 1.875 0.09375 0.75781 0 1.3164-0.0625 1.6719-0.1875 0.36328-0.13281 0.57031-0.20312 0.625-0.20312 0.05078 0 0.08594 0.01172 0.10938 0.03125 0.01953 0.02344 0.03125 0.05859 0.03125 0.10938 0 0.15625-0.10547 0.35156-0.3125 0.57812-0.19922 0.21875-0.50781 0.41406-0.92188 0.57812-0.41797 0.16797-0.93359 0.25-1.5469 0.25-0.24219 0-0.46875-0.0039-0.6875-0.01563-0.21094-0.0078-0.40234-0.02344-0.57812-0.04687-0.59375-0.05078-1.0156-0.07813-1.2656-0.07813l-0.76562 4.7344h3.6875c0.10156 0 0.15625 0.042969 0.15625 0.125 0 0.09375-0.085937 0.25-0.25 0.46875-0.16797 0.21875-0.37109 0.41797-0.60938 0.59375-0.24219 0.16797-0.46875 0.25-0.6875 0.25-0.074219 0-0.24219-0.023438-0.5-0.078125-0.46875-0.11328-0.90625-0.17188-1.3125-0.17188h-0.64062l-0.67188 3.8438c-0.023438 0.21875-0.078125 0.43359-0.17188 0.64062-0.085937 0.21094-0.16797 0.36719-0.25 0.46875v0.03125c0.26953 0.074219 0.59766 0.13672 0.98438 0.1875 0.39453 0.042969 0.76562 0.0625 1.1094 0.0625 1.1562 0 2.1875-0.28516 3.0938-0.85938 0.039063-0.00781 0.082031-0.023438 0.125-0.046875 0.039063-0.03125 0.082031-0.046875 0.125-0.046875 0.09375 0 0.14062 0.0625 0.14062 0.1875 0 0.27344-0.17969 0.57031-0.53125 0.89062-0.35547 0.3125-0.80859 0.57812-1.3594 0.79688-0.54297 0.21094-1.1016 0.3125-1.6719 0.3125-0.39844 0-1-0.066406-1.8125-0.20312-0.59375-0.082031-1.0117-0.125-1.25-0.125-0.27344 0-0.53125 0.058594-0.78125 0.17188-0.25 0.10547-0.40625 0.15625-0.46875 0.15625z"/>
   </g>
   <g transform="matrix(.26458 0 0 .26458 53.117 53.548)">
    <path d="m75.473-39.77c-4.1953-2.0312-8.1328-2.0312-12.578-2.0312 2.2852-8.2617 4.9531-16.391 7.75-24.523 1.3984-3.3047 2.5391-6.6055 4.5742-9.5273 0.125 0 0.125-0.12891 0-0.25781h-0.25391c-8.2578 6.4805-13.723 24.398-15.629 34.688-3.8125 0.50781-7.3711 1.6523-10.926 2.668-3.4336 1.0195-6.8633 1.9062-10.293 2.7969 1.9062-7.2422 3.9375-13.977 2.9219-20.836-1.5234-10.293-10.293-20.586-21.219-20.586-11.434 0-21.598 11.055-19.438 22.871 0.63281 3.5586 2.2852 6.9883 5.3359 9.4023 1.6523 1.1445 3.6836 1.6523 5.7148 1.6523 5.082 0 10.801-3.3047 11.691-8.6406 0.25391-1.7773 0-3.6836-0.76172-5.2109-0.76172-1.6484-1.9062-3.0469-3.1758-4.1914 0-0.125-0.12891-0.125-0.25781 0v0.25391c2.4141 2.4141 4.1953 5.7188 3.4336 9.0234-1.0195 4.4453-6.1016 7.4961-10.547 7.4961-1.9062 0-3.6836-0.51172-5.2109-1.6523-2.4141-2.1602-3.8086-5.3359-4.3203-8.3867-1.5234-10.418 7.7539-19.82 17.156-19.82s16.516 9.7812 17.785 18.297c0.76172 6.9883-1.2695 13.594-2.668 19.566-0.125 0.63281-0.25391 1.1445-0.50781 1.6523-3.0469 0.76172-6.2266 1.2695-9.4023 1.2695-0.76172 0-1.6523 0-2.4141-0.12891-0.125 0-0.25391 0.12891-0.25391 0.12891 0 0.125 0.12891 0.25391 0.12891 0.25391 2.1602 0.50781 4.1914 0.63672 6.3516 0.63672 1.7773 0 3.5586-0.12891 5.2109-0.25391-3.1797 12.07-6.7344 24.012-10.168 36.211 0.12891 0.125 0.25391 0 0.25391 0 5.2109-11.945 10.039-24.27 13.723-36.723 3.9414-0.63281 7.7539-1.3945 11.691-2.1602 3.0469-0.63281 6.2266-1.0156 9.4023-1.5234-0.12891 0.25391-0.12891 0.50781-0.12891 0.76172-1.3984 6.9883-2.2852 14.23-2.668 21.348-0.25391 7.2422 0 14.484 1.5273 21.473 0 0.125 0.125 0.125 0.25391 0.125 0.125 0 0.125-0.125 0.125-0.125-1.0156-7.1172-0.76172-14.23 0-21.348 0.76172-6.9883 2.0352-13.977 3.6836-20.836 0.12891-0.63672 0.38281-1.2695 0.51172-1.9062 0.125-0.125 0.25391-0.125 0.37891-0.125 4.3203-0.76562 8.5117-1.3984 13.086-1.3984 0.12891 0 0.12891 0 0.25391-0.12891 0 0 0-0.125-0.125-0.25391z"/>
   </g>
   <g transform="matrix(.26458 0 0 .26458 51.485 97.748)">
    <use x="262.32422" y="171.85771" width="100%" height="100%" xlink:actuate="onLoad" xlink:href="#glyph-2-1" xlink:show="embed" xlink:type="simple"/>
   </g>
  </g>
 </g>
</svg>